<svg width="330" height="368" viewBox="0 0 166 184" fill="none" xmlns="http://www.w3.org/2000/svg">
<path d="M65.7098 57.2216C65.7098 57.2216 49.8342 57.6129 39.0918 66.8099C28.3493 76.0068 18.3215 88.7476 11.889 102.249C5.45654 115.751 -0.217944 126.144 0.475117 138.124C1.16818 150.126 8.18563 158.17 19.6428 161.323C31.1 164.476 40.8896 165.41 40.8896 165.41L40.6511 183.565H121.068L120.353 147.256C120.353 147.256 123.624 147.43 126.309 144.755C128.995 142.081 127.76 133.928 127.76 133.928C127.76 133.928 137.94 141.124 146.625 140.385C155.331 139.646 161.114 133.254 162.327 128.797C163.518 124.34 164.861 117.165 164.774 106.381C164.688 95.5965 163.648 72.2672 163.648 72.2672C163.648 72.2672 161.85 68.5058 149.635 67.9187C137.42 67.3317 134.474 71.267 134.474 71.267L134.171 79.1594C134.171 79.1594 130.511 70.7887 124.772 66.9838C119.011 63.2007 108.853 57.5912 98.2837 57.5042C87.7145 57.4173 65.6881 57.2433 65.6881 57.2433L65.7098 57.2216Z" fill="#0038A8"/>
<path d="M100.017 146.995H120.375C120.375 146.995 123.927 147.169 126.331 144.755C128.735 142.342 127.782 136.667 127.782 136.667L127.934 91.7481C127.934 91.7481 128.042 89.0085 126.05 87.1605C124.036 85.3124 121.588 85.3124 121.588 85.3124H43.6187C43.6187 85.3124 39.1136 85.1384 37.4243 87.5518C35.7566 89.9652 36.363 92.9873 36.363 92.9873L36.2546 133.015C36.2546 133.015 57.0901 137.428 67.3994 137.537C67.3994 137.537 69.3052 136.972 70.0416 138.211C70.7996 139.45 70.0416 138.515 70.0416 138.515C70.0416 138.515 73.2901 137.254 73.6367 134.58C73.9615 131.884 73.7019 124.579 77.1455 124.492C80.6108 124.405 81.3037 129.275 81.2821 133.123C81.2821 136.993 79.4848 141.972 79.4848 141.972C79.4848 141.972 78.9432 144.081 82.0186 144.929C85.1157 145.777 93.8657 147.734 99.995 147.038L100.017 146.995Z" fill="#0F0F0F"/>
<path d="M67.0529 140.146C67.0529 140.146 71.3625 138.276 72.597 136.385C73.8315 134.493 74.0485 133.971 74.0485 130.884C74.0485 127.818 74.6548 124.796 77.1671 124.427C79.6795 124.057 81.3903 126.927 81.282 130.927C81.1953 134.928 80.3943 139.733 79.9828 140.798C79.5713 141.864 79.1162 143.386 81.282 144.516C83.4478 145.647 87.3466 147.19 92.4362 146.93C97.5043 146.647 100.017 146.973 100.017 146.973C100.017 146.973 99.3452 148.278 98.4356 148.908C98.4356 148.908 97.3524 153.713 93.8221 154.974C90.2919 156.235 87.6497 157.04 82.625 157.17C77.6003 157.279 73.4853 156.735 71.7743 156.714C70.0416 156.714 66.6409 156.322 65.9912 153.952C65.9912 153.952 65.4066 150.539 65.6448 146.582C65.8831 142.646 67.0741 140.146 67.0741 140.146H67.0529Z" fill="#FEFEFE"/>
<path d="M158.601 74.4631C158.601 74.4631 159.056 66.3968 158.818 63.6573C158.58 60.9178 158.017 60.6352 158.601 56.7216C159.186 52.808 160.031 48.3726 159.706 44.1329C159.403 39.8932 158.732 37.0884 156.891 37.3711C155.05 37.6537 153.599 38.6756 153.599 38.6756C153.599 38.6756 153.75 36.0883 150.978 36.0014C148.206 35.9144 147.556 37.9798 147.556 37.9798C147.556 37.9798 146.321 35.8926 144.134 36.0883C141.968 36.284 140.842 38.0451 140.733 40.4367C140.625 42.8283 140.3 55.2431 140.3 55.2431C140.3 55.2431 139.001 55.0039 137.355 52.7862C135.709 50.5685 132.525 47.6334 130.013 50.025C127.479 52.4166 128.345 54.6344 131.009 57.1999C133.673 59.7655 137.55 62.8963 138.416 66.7229C139.283 70.5278 139.391 74.8545 139.391 74.8545C139.391 74.8545 152.017 77.2244 158.623 74.4631H158.601Z" fill="#FEFEFE"/>
<path d="M90.7251 118.817C90.7251 122.404 87.8229 125.296 84.271 125.296C80.719 125.296 77.8169 122.383 77.8169 118.817C77.8169 115.251 80.719 112.316 84.271 112.316C87.8229 112.316 90.7251 115.23 90.7251 118.817Z" fill="#0038A8"/>
<path d="M102.248 28.9134C102.204 23.804 96.6379 24.8259 95.5766 25.1086C95.6199 23.9562 95.6633 21.1297 95.1219 20.1296C94.1689 18.3685 93.0856 14.3245 93.0856 14.3245C93.0856 14.3245 88.2562 15.3681 82.0836 15.9334C75.911 16.4987 70.7781 11.7806 70.7781 11.7806C70.4749 16.2595 68.1359 20.4775 68.1359 20.4775L67.7023 24.9346C63.3274 23.891 61.14 26.4348 61.3133 28.8917C61.4865 31.3485 62.9375 33.0662 64.3885 33.5445C65.8396 34.0228 68.0925 33.1966 68.0925 33.1966C68.0925 33.1966 68.439 34.1533 68.5906 38.4147C68.7422 42.6762 72.532 45.9592 72.532 45.9592L72.1423 51.6774L65.7533 57.1999L71.2762 85.269H92.6742L98.3272 57.4608L91.2883 51.6774L90.6385 46.3941C94.9052 42.9806 95.4249 37.4798 95.4899 33.1531C98.1105 34.5881 102.312 33.8271 102.248 28.9134Z" fill="#FEFEFE"/>
<path d="M81.867 64.7009L76.8855 75.8981L78.8567 80.1814L77.6437 85.2689H87.2165L85.5054 80.1814L87.3032 76.246L81.867 64.7009Z" fill="#0038A8"/>
<path d="M80.6321 67.4839L84.0109 75.3981L82.9713 80.1814L84.0109 85.2689H87.2162L85.5052 80.1814L87.303 76.246L81.8667 64.7009L80.6321 67.4839Z" fill="#FEFEFE"/>
<path d="M66.1646 24.5215C66.1646 24.5215 62.7858 5.88852 70.4095 5.23625C70.4095 5.23625 73.7015 -0.394959 81.7584 0.409499C89.8369 1.21396 94.6017 3.77956 97.0058 10.9762C99.4098 18.1728 97.3743 24.6085 97.3743 24.6085L95.4031 24.8912V20.6297L93.4541 14.1505C93.4541 14.1505 86.978 16.8466 81.1952 15.9116C75.4125 14.9767 70.7564 11.8024 70.7564 11.8024C70.7564 11.8024 69.5219 19.0208 68.1141 20.4993L67.6805 24.9564L66.1646 24.5215Z" fill="#0F0F0F"/>
<path d="M95.3814 20.6297V24.8911L97.3527 24.6084C97.3527 24.6084 99.3882 18.1728 96.9841 10.9761C95.2298 5.73629 92.2197 2.95329 87.6065 1.51831C88.9926 2.73587 93.8655 7.38866 91.6997 10.6717C89.209 14.4549 74.1351 13.6287 74.0485 13.6287C75.9111 14.4984 78.4013 15.455 81.1736 15.9116C86.9563 16.8465 93.4324 14.1505 93.4324 14.1505L95.3814 20.6297Z" fill="#FEFEFE"/>
<path d="M74.3949 32.6096C71.3844 32.6096 68.937 29.5222 68.937 25.7174C68.937 21.9125 71.3844 18.8251 74.3949 18.8251C77.4054 18.8251 79.8528 21.9125 79.8528 25.7174C79.8528 29.5222 77.4054 32.6096 74.3949 32.6096ZM74.3949 19.6948C71.8609 19.6948 69.8248 22.3908 69.8248 25.7174C69.8248 29.0439 71.8826 31.7399 74.3949 31.7399C76.9073 31.7399 78.965 29.0439 78.965 25.7174C78.965 22.3908 76.9073 19.6948 74.3949 19.6948Z" fill="#0F0F0F"/>
<path d="M121.545 147.408H95.1655C95.1655 146.517 121.545 146.516 121.545 146.516C124.772 146.516 127.414 143.864 127.414 140.624V91.6176C127.414 88.378 124.772 85.7256 121.545 85.7256H42.536C39.309 85.7256 36.6668 88.378 36.6668 91.6176V133.102C35.7788 133.102 35.7784 91.6176 35.7784 91.6176C35.7784 87.878 38.8108 84.8341 42.536 84.8341H121.545C125.27 84.8341 128.302 87.878 128.302 91.6176V140.624C128.302 144.364 125.27 147.408 121.545 147.408Z" fill="#0F0F0F"/>
<path d="M82.1489 123.448C78.337 123.448 75.2395 120.339 75.2395 116.512C75.2395 112.686 78.337 109.577 82.1489 109.577C85.9607 109.577 89.0577 112.686 89.0577 116.512C89.0577 120.339 85.9607 123.448 82.1489 123.448ZM82.1489 110.468C78.8352 110.468 76.1278 113.186 76.1278 116.512C76.1278 119.839 78.8352 122.557 82.1489 122.557C85.4626 122.557 88.1699 119.839 88.1699 116.512C88.1699 113.186 85.4626 110.468 82.1489 110.468Z" fill="#0F0F0F"/>
<path d="M134.063 80.0074C131.031 74.3544 128.671 70.8104 126.505 68.9189C116.867 60.6134 107.9 59.2001 99.9734 57.9608C99.2804 57.8521 98.5874 57.7434 97.916 57.6347C98.739 56.8737 99.4099 56.9824 100.103 57.0911C108.138 58.3522 117.257 59.7654 127.068 68.2449C129.342 70.2016 131.746 73.8326 134.453 79.3551C134.193 79.9856 134.128 79.9856 134.063 79.9856V80.0074Z" fill="#0F0F0F"/>
<path d="M50.3757 165.802C25.0356 165.802 9.61502 160.562 3.24752 149.821C-3.4232 138.537 0.129058 121.687 14.4018 96.7923C22.4586 82.7468 32.8545 71.5062 36.6014 68.2449C46.4125 59.7655 55.5305 58.3522 63.5657 57.0912C64.2588 56.9825 64.9301 56.8738 65.6231 56.7651C65.0817 57.7435 64.4105 57.8521 63.7175 57.9609C55.7906 59.2002 46.8241 60.6134 37.1862 68.9189C33.461 72.1367 23.173 83.2904 15.1595 97.2271C1.03838 121.817 -2.49171 138.385 3.98408 149.343C10.4599 160.279 27.6349 165.497 54.9892 164.845C58.7144 164.758 69.9332 164.845 70.0415 164.845C69.9332 165.737 58.736 165.65 55.0108 165.737C53.4298 165.78 51.8701 165.802 50.354 165.802H50.3757Z" fill="#0F0F0F"/>
<path d="M71.2545 85.7256C70.8213 85.3777 65.2985 57.3086 65.2985 57.3086C65.4284 56.8955 71.8393 51.1555 71.8393 51.1555C72.489 51.2208 81.9318 63.8312 81.9318 63.8312L90.898 51.2425C91.5478 51.1556 98.3055 56.8955 98.3055 56.8955C98.4571 57.3086 93.0855 85.3776 93.0855 85.3776C92.2192 85.2037 97.5256 57.3956 97.5256 57.3956L91.3316 52.134L82.2998 64.8314C81.5851 64.8314 72.0555 52.134 72.0555 52.134L66.2079 57.3956L71.6875 85.2038C71.3193 85.7256 71.2761 85.7256 71.2545 85.7256Z" fill="#0F0F0F"/>
<path d="M72.2941 85.7256C71.9043 85.095 81.5422 64.3748 81.5422 64.3748C82.3435 64.3748 91.8949 85.095 91.8949 85.095C91.0935 85.4646 81.9319 65.6141 81.9319 65.6141L72.6838 85.4647C72.6188 85.6169 72.4457 85.7256 72.2941 85.7256Z" fill="#0F0F0F"/>
<path d="M78.8567 80.6378C78.4452 80.3769 76.4741 75.5719 76.4741 75.5719C77.2971 75.224 79.1597 79.7464 79.1597 79.7464H85.2024L86.8051 75.8328C87.6281 76.1807 85.9173 80.3335 85.9173 80.3335C85.5058 80.6162 78.8784 80.616 78.8784 80.616L78.8567 80.6378Z" fill="#0F0F0F"/>
<path d="M77.6437 85.7256C77.2109 85.182 78.4442 80.0943 78.4442 80.0943C79.3098 80.3118 78.0764 85.3994 78.0764 85.3994C78.0332 85.5951 77.8385 85.7474 77.6437 85.7474V85.7256Z" fill="#0F0F0F"/>
<path d="M87.0204 85.7256C86.6092 85.4212 85.0724 80.3118 85.0724 80.3118C85.9164 80.0509 87.4314 85.1603 87.4314 85.1603C87.0852 85.7255 87.0637 85.7256 87.0204 85.7256Z" fill="#0F0F0F"/>
<path d="M89.2738 32.6096C86.2633 32.6096 83.8164 29.5222 83.8164 25.7174C83.8164 21.9125 86.2633 18.8251 89.2738 18.8251C92.2843 18.8251 94.7317 21.9125 94.7317 25.7174C94.7317 29.5222 92.2843 32.6096 89.2738 32.6096ZM89.2738 19.6948C86.7398 19.6948 84.7042 22.3908 84.7042 25.7174C84.7042 29.0439 86.7614 31.7399 89.2738 31.7399C91.7861 31.7399 93.8439 29.0439 93.8439 25.7174C93.8439 22.3908 91.7861 19.6948 89.2738 19.6948Z" fill="#0F0F0F"/>
<path d="M84.076 26.1304C82.9931 25.2825 82.2135 24.9129 81.4988 24.9781C80.5242 25.0433 79.8744 25.826 79.8744 25.826C79.2247 25.239 80.0476 24.1954 81.4121 24.0866C82.4083 24.0214 83.4049 24.4345 84.3795 25.3694C84.3145 26.0869 84.1843 26.1304 84.076 26.1304Z" fill="#0F0F0F"/>
<path d="M97.6557 34.262C96.8544 34.262 96.0529 34.0663 95.3381 33.6967C96.3994 33.2618 97.1795 33.414 97.9159 33.3706C99.0204 33.3053 100.038 32.8053 100.774 31.9573C101.511 31.1311 101.879 30.0441 101.814 28.9352C101.749 27.8264 101.251 26.8045 100.428 26.0652C99.5833 25.326 98.5218 24.9781 97.4172 25.0216C96.9408 25.0433 96.4862 25.152 96.053 25.3477C96.2263 24.3041 96.7896 24.1736 97.3527 24.1302C98.6955 24.0649 99.9949 24.4998 100.991 25.3912C102.009 26.2827 102.594 27.5219 102.681 28.8699C102.767 30.2179 102.334 31.5225 101.424 32.5227C100.536 33.5445 99.3015 34.1316 97.9587 34.2185C97.8504 34.2185 97.7423 34.2185 97.634 34.2185L97.6557 34.262Z" fill="#0F0F0F"/>
<path d="M98.6517 32.0007C98.3918 31.9138 95.2729 29.5004 95.2729 29.5004C95.2729 28.7829 98.7168 26.2391 98.7168 26.2391C99.2366 26.9566 96.2913 29.1525 96.2913 29.1525L98.9336 31.1963C98.9336 31.9355 98.8034 31.979 98.6734 31.979L98.6517 32.0007Z" fill="#0F0F0F"/>
<path d="M65.8832 34.2619C62.7861 34.088 60.6851 31.6746 60.8584 28.8916C61.0316 26.1086 63.4356 23.9997 66.2079 24.1518C66.7926 24.1953 67.3341 24.3258 67.8539 24.5432C67.0742 25.1737 66.6193 25.065 66.1428 25.0433C63.8254 24.8911 61.8761 26.6522 61.7245 28.9568C61.5729 31.2615 63.3273 33.2401 65.6231 33.3922C66.3811 33.4357 67.1391 33.2836 67.7889 32.9357C67.4857 34.088 66.6846 34.2837 65.8832 34.2837V34.2619Z" fill="#0F0F0F"/>
<path d="M64.8657 32.0007C64.6058 31.218 67.2478 29.1525 67.2478 29.1525L64.2809 26.9566C64.8007 26.2391 68.244 28.7829 68.244 28.7829C68.244 29.5004 65.147 31.892 65.147 31.892C65.0604 31.9573 64.974 31.979 64.8874 31.979L64.8657 32.0007Z" fill="#0F0F0F"/>
<path d="M72.1202 52.3949C71.6874 51.96 71.6875 46.1983 71.6875 46.1983C72.5748 46.1983 72.5746 51.96 72.5746 51.96C72.5746 52.1992 72.3799 52.3949 72.1419 52.3949H72.1202Z" fill="#0F0F0F"/>
<path d="M91.2659 51.9165C90.8331 51.5034 90.5299 46.3071 90.5299 46.3071C91.3955 46.2636 91.7203 51.4382 91.7203 51.4382C91.3091 51.9165 91.2875 51.9165 91.2875 51.9165H91.2659Z" fill="#0F0F0F"/>
<path d="M97.3531 25.0433C99.2157 15.3463 96.2049 9.84555 94.9055 7.4974C91.83 1.86619 83.8381 0.0398236 77.5572 1.14867C73.204 1.90965 70.7568 5.45361 70.7351 5.4971C69.7172 5.84497 69.0456 6.17112 68.3525 6.73641C65.9701 8.62798 66.0566 11.9546 66.0566 11.998C66.0133 15.8464 66.5764 24.5215 66.5764 24.6084C65.6884 24.5867 65.1472 15.8681 65.1688 12.0197C65.1688 11.8893 65.0605 8.21488 67.7894 6.06241C68.5474 5.45363 69.284 5.084 70.107 4.88832C70.6268 4.17083 73.1388 1.06176 77.4055 0.322527C84.0112 -0.851548 92.3933 1.12693 95.6854 7.12776C97.7646 10.9326 99.887 16.3682 97.7862 24.7824C97.7428 24.9781 97.548 25.1085 97.3531 25.1085V25.0433Z" fill="#0F0F0F"/>
<path d="M121.089 184C120.656 183.283 120.635 156.714 119.92 147.278C121.522 156.692 121.522 183.282 121.522 183.565C121.522 183.804 121.327 184 121.089 184Z" fill="#0F0F0F"/>
<path d="M40.6728 184C40.2399 183.543 40.4783 165.389 40.4783 165.389C41.3656 165.389 41.1055 183.565 41.1055 183.565C41.1055 183.804 40.9108 184 40.6728 184Z" fill="#0F0F0F"/>
<path d="M82.4511 177.26C82.0183 176.825 82.0184 157.431 82.0184 157.431C82.9057 157.431 82.9055 176.803 82.9055 176.803C82.9055 177.043 82.7109 177.238 82.4728 177.238L82.4511 177.26Z" fill="#0F0F0F"/>
<path d="M95.1653 147.408C94.7754 147.365 94.2986 147.343 93.7138 147.278C87.0864 146.756 80.7625 145.93 79.3331 143.494C78.9649 142.864 78.9431 142.168 79.268 141.429C80.8491 137.907 81.6937 129.797 79.7661 126.405C79.2463 125.492 78.575 125.014 77.7304 124.927C76.9507 124.84 76.344 125.014 75.8675 125.449C74.4381 126.775 74.46 130.275 74.4817 132.362C74.4817 132.71 74.4817 133.036 74.4817 133.319C74.4383 137.494 67.1612 140.603 66.8579 140.711C66.598 139.863 73.55 136.907 73.5933 133.297C73.5933 133.015 73.5933 132.689 73.5933 132.341C73.5717 129.949 73.5284 126.34 75.2611 124.774C75.9108 124.166 76.7775 123.905 77.7954 124.013C78.9216 124.122 79.8313 124.774 80.5027 125.927C82.6252 129.645 81.694 138.081 80.0479 141.755C79.8314 142.233 79.8525 142.625 80.0691 143.016C81.4769 145.408 90.097 146.082 93.7789 146.386C94.3636 146.43 94.8404 146.473 95.187 146.516C95.5552 147.234 95.3602 147.408 95.1436 147.408H95.1653Z" fill="#0F0F0F"/>
<path d="M86.2633 152.539C83.9892 152.539 81.3905 152.343 78.38 151.887C95.8798 153.67 99.5829 147.125 99.6263 147.06C100.276 147.712 97.6339 152.561 86.2633 152.561V152.539Z" fill="#0F0F0F"/>
<path d="M82.1922 157.627C80.871 157.627 79.5063 157.583 78.1202 157.518C77.2105 157.475 76.2575 157.453 75.2828 157.431C74.0267 157.409 72.7488 157.301 71.4927 157.127C69.9116 156.931 68.7855 156.801 67.8326 156.387C66.5764 155.822 65.9048 154.757 65.45 153.887C66.8144 154.605 67.3992 155.213 68.1789 155.561C69.0019 155.931 70.0416 156.039 71.0162 156.17C72.8139 156.409 74.07 156.496 75.3045 156.54C76.3008 156.561 77.2322 156.605 78.1635 156.627C83.2316 156.801 87.2381 156.953 92.6094 155.061C95.3816 154.083 98.0022 150.517 98.0022 148.908C98.8902 150.995 95.9234 154.822 92.9129 155.887C88.9494 157.279 85.6142 157.605 82.2139 157.605L82.1922 157.627Z" fill="#0F0F0F"/>
<path d="M144.675 140.929C143.333 140.929 142.055 140.777 140.82 140.45C135.384 139.015 131.269 137.102 127.522 134.254C131.702 136.319 135.709 138.168 141.037 139.581C146.3 140.972 153.469 138.929 158.017 134.667C163.518 129.558 163.756 120.948 163.973 113.36C164.016 111.599 164.081 109.924 164.189 108.337C164.904 97.9446 163.258 72.5063 163.236 72.2454C164.124 72.4411 165.792 97.9446 165.056 108.403C164.948 109.968 164.904 111.62 164.861 113.381C164.644 121.143 164.384 129.949 158.623 135.319C154.833 138.863 149.505 140.907 144.654 140.907L144.675 140.929Z" fill="#0F0F0F"/>
<path d="M135.08 127.21C131.834 117.882 133.976 73.7457 134.084 71.8541C134.928 72.3542 132.742 117.773 135.513 126.623C135.188 127.188 135.145 127.188 135.101 127.188L135.08 127.21Z" fill="#0F0F0F"/>
<path d="M149.094 76.2025C141.622 76.2025 134.063 74.8327 134.063 72.2454C134.063 70.7235 135.688 69.6581 139.023 69.0276C137.247 70.2669 134.951 70.9626 134.951 72.2454C134.951 73.5282 140.322 75.3328 149.094 75.3328C157.866 75.3328 163.237 73.5499 163.237 72.2454C163.237 71.3105 161.72 70.4408 159.165 69.8973C163.302 69.8538 164.125 71.2235 164.125 72.2454C164.125 74.8545 156.566 76.2025 149.094 76.2025Z" fill="#0F0F0F"/>
<path d="M139.586 75.3545C139.088 74.5283 139.066 73.9848 139.023 73.3325C138.871 70.0929 138.59 64.6792 133.348 60.1133C129.623 56.852 127.934 54.4169 128.064 52.4166C128.129 51.286 128.8 50.3076 130.1 49.4379C133.197 47.3507 135.449 49.9162 137.42 52.1992C138.85 53.8733 140.344 55.591 142.142 55.6997C146.993 56.0476 148.639 60.7873 148.704 61.0048C147.816 61.1135 146.322 56.8954 142.077 56.591C139.932 56.4388 138.308 54.569 136.749 52.7862C134.756 50.5033 133.045 48.5248 130.598 50.1772C129.536 50.8946 128.995 51.6339 128.952 52.4818C128.843 54.1342 130.489 56.4172 133.933 59.4393C139.456 64.2661 139.738 70.1364 139.911 73.289C139.932 73.9196 139.976 74.4414 140.019 74.8545C139.629 75.3545 139.608 75.3545 139.586 75.3545Z" fill="#0F0F0F"/>
<path d="M140.322 55.678C139.65 52.1123 139.802 49.5467 139.997 46.5898C140.105 45.0461 140.214 43.285 140.278 41.2195C140.322 40.0672 140.473 38.393 141.296 37.2842C142.228 36.0666 143.722 35.4361 145.195 35.6535C146.364 35.8274 147.361 36.5449 147.729 37.5233C147.903 38.0016 147.924 38.5017 147.924 38.8931C148.054 42.5023 148.141 49.3945 147.469 55.1127C147.274 49.3727 147.166 42.5022 147.036 38.9365C147.036 38.5886 147.014 38.1756 146.884 37.8277C146.646 37.1755 145.931 36.6754 145.065 36.5449C143.917 36.371 142.704 36.8711 141.99 37.8277C141.296 38.7191 141.188 40.1976 141.145 41.2412C141.08 43.3067 140.972 45.0678 140.863 46.6333C140.668 49.6771 140.517 52.0905 140.733 55.1996C140.322 55.678 140.3 55.678 140.3 55.678H140.322Z" fill="#0F0F0F"/>
<path d="M153.208 55.4387C153.382 49.851 153.533 44.3938 153.187 38.6973C153.143 38.1538 153.1 37.6754 152.884 37.3276C152.516 36.7405 151.627 36.4579 150.999 36.4361C150.328 36.3926 148.682 36.5666 147.859 38.4364C147.772 36.4362 149.288 35.5229 151.021 35.5447C151.909 35.5882 153.057 35.9795 153.62 36.8275C153.967 37.371 154.032 37.9798 154.075 38.6321C154.422 44.372 154.292 49.8945 153.664 55.0474C153.642 55.2648 153.447 55.4387 153.23 55.4387H153.208Z" fill="#0F0F0F"/>
<path d="M158.58 75.1372C158.883 69.0059 158.515 64.9401 158.255 61.9614C158.104 60.309 157.995 59.0045 158.125 57.9827C158.688 53.6777 159.707 45.8506 159.1 40.6759C159.014 39.8932 158.862 39.0018 158.342 38.4365C157.887 37.9582 157.129 37.6973 156.371 37.806C155.44 37.9147 154.725 38.1321 154.184 38.8496C154.249 37.2842 155.332 37.045 156.284 36.9145C157.367 36.8058 158.364 37.132 159.013 37.8277C159.728 38.5887 159.901 39.6323 160.01 40.5672C160.638 45.8505 159.598 53.7647 159.057 58.0044C158.927 59.0046 159.035 60.2656 159.165 61.8745C159.425 64.8967 159.793 69.0276 159.057 74.7458C159.035 74.9632 158.84 75.1372 158.623 75.1372H158.58Z" fill="#0F0F0F"/>
<path d="M69.9982 165.758C67.3559 165.758 65.58 158.562 65.2335 151.713C64.8869 144.799 65.9917 137.385 68.6773 137.254C69.1538 137.254 70.2367 137.798 70.2583 137.798C69.5653 138.428 68.8717 138.146 68.6985 138.146C67.3557 138.211 65.7098 143.386 66.1213 151.669C66.5328 159.953 68.677 164.976 70.0198 164.889C70.3664 164.889 72.1638 164.41 72.4886 156.822C73.0518 164.128 71.406 165.715 70.0632 165.78C70.0415 165.78 70.0198 165.78 69.9982 165.78V165.758Z" fill="#0F0F0F"/>
<path d="M68.244 138.124C66.6629 137.972 65.1471 137.82 63.6093 137.668C57.4151 137.081 51.0044 136.472 44.7235 135.276C37.3164 133.884 29.6926 131.862 20.7261 128.905C29.9308 131.014 37.5109 133.036 44.8747 134.406C51.1123 135.58 57.5018 136.189 63.6961 136.776C65.2338 136.928 66.7496 137.059 68.2873 137.211C68.6555 137.928 68.4605 138.102 68.244 138.102V138.124Z" fill="#0F0F0F"/>
<path d="M81.3035 49.0467C67.5289 49.0467 67.5292 40.0672 67.5292 25.1738V20.6514C68.3305 19.6948 69.7164 15.0637 70.4961 12.1503C69.3049 11.0415 68.785 10.1283 68.7633 10.1065C69.5647 9.75866 74.1783 17.6511 88.1478 14.9333C89.209 14.7376 93.1938 13.8462 93.1938 13.8462C93.7352 14.2158 95.0784 19.173 95.7281 20.4557C95.7715 20.6297 95.9878 25.6956 95.9878 25.6956C95.9878 39.7628 95.9877 49.0467 81.3035 49.0467ZM68.417 20.8036V25.152C68.417 39.9802 68.4169 48.1552 81.3035 48.1552C95.0997 48.1552 95.1 40.1759 95.1 25.7174L94.9049 20.7602C94.3201 19.5209 93.324 15.9987 92.9775 14.8028C91.9379 15.042 89.1654 15.6508 88.3207 15.803C79.3326 17.5423 74.0266 15.0202 71.2543 12.7808C70.7129 14.781 69.3699 19.5643 68.417 20.8036Z" fill="#0F0F0F"/>
<path d="M79.355 35.3056C79.0302 35.1969 76.1929 33.7402 76.5827 31.479C76.821 30.0657 78.2504 30.0875 79.2683 30.1092C80.1563 30.1309 80.5247 30.1092 80.568 29.8265C80.7846 28.4133 80.7192 20.1948 80.7192 20.1078C81.6072 20.434 81.6724 28.4568 81.4341 29.957C81.2825 31.0224 80.1346 31.0006 79.2466 30.9789C78.1204 30.9571 77.5571 31.0224 77.4488 31.6312C77.1673 33.2401 79.528 34.4576 79.5496 34.4576C79.6796 35.1969 79.5066 35.3056 79.355 35.3056Z" fill="#0F0F0F"/>
<path d="M82.5384 40.1323C82.0619 40.1323 81.5639 40.0454 81.0225 39.8714C82.2786 39.3496 83.08 39.3278 83.7081 38.9365C84.7476 38.2842 84.9855 36.8275 84.9855 36.8275C85.8519 37.0232 85.5706 38.8278 84.1845 39.6975C83.708 40.0018 83.1449 40.154 82.5384 40.154V40.1323Z" fill="#0F0F0F"/>
</svg>
