<svg width="152" height="130" viewBox="0 0 152 130" fill="none" xmlns="http://www.w3.org/2000/svg">
<path d="M13.9238 64.3884C13.9238 80.3702 20.2726 95.6973 31.5734 106.998C42.8742 118.299 58.2013 124.648 74.1831 124.648C90.1648 124.648 105.492 118.299 116.793 106.998C128.094 95.6973 134.442 80.3702 134.442 64.3884C134.442 48.4067 128.094 33.0795 116.793 21.7787C105.492 10.4779 90.1648 4.12915 74.1831 4.12915C58.2013 4.12915 42.8742 10.4779 31.5734 21.7787C20.2726 33.0795 13.9238 48.4067 13.9238 64.3884Z" fill="#FFD7D6"/>
<path d="M36.7702 29.4092L16.0049 76.2457" stroke="#66160E" stroke-width="1.5" stroke-linecap="round" stroke-linejoin="round"/>
<path d="M55.8197 107.168L16.0049 76.2461" stroke="#66160E" stroke-width="1.5" stroke-linecap="round" stroke-linejoin="round"/>
<path d="M117.943 60.8582L97.3076 97.0679" stroke="#FF8783" stroke-width="1.5" stroke-linecap="round" stroke-linejoin="round"/>
<path d="M36.7695 29.4091L90.7784 17.9102" stroke="#66160E" stroke-width="1.5" stroke-linecap="round" stroke-linejoin="round"/>
<path d="M117.944 60.8584L90.7793 17.9102" stroke="#66160E" stroke-width="1.5" stroke-linecap="round" stroke-linejoin="round"/>
<path d="M117.944 60.8582L73.7513 70.7407L16.0049 76.2454" stroke="#66160E" stroke-width="1.5" stroke-linecap="round" stroke-linejoin="round"/>
<path d="M36.7695 29.4092L55.819 107.168" stroke="#66160E" stroke-width="1.5" stroke-linecap="round" stroke-linejoin="round"/>
<path d="M90.7787 17.9102L73.751 70.741" stroke="#66160E" stroke-width="1.5" stroke-linecap="round" stroke-linejoin="round"/>
<path d="M36.7695 29.4092L97.3075 97.0683" stroke="#66160E" stroke-width="1.5" stroke-linecap="round" stroke-linejoin="round"/>
<path d="M97.3078 97.0679L55.8193 107.167" stroke="#66160E" stroke-width="1.5" stroke-linecap="round" stroke-linejoin="round"/>
<path d="M16.0049 76.2456L90.7791 17.9102" stroke="#66160E" stroke-width="1.5" stroke-linecap="round" stroke-linejoin="round"/>
<path d="M1.11426 73.4555C1.11426 75.636 1.54374 77.7952 2.3782 79.8098C3.21265 81.8243 4.43572 83.6548 5.97759 85.1966C7.51945 86.7385 9.34991 87.9616 11.3645 88.796C13.379 89.6305 15.5382 90.06 17.7187 90.06C19.8992 90.06 22.0584 89.6305 24.0729 88.796C26.0875 87.9616 27.9179 86.7385 29.4598 85.1966C31.0017 83.6548 32.2247 81.8243 33.0592 79.8098C33.8937 77.7952 34.3231 75.636 34.3231 73.4555C34.3231 71.275 33.8937 69.1158 33.0592 67.1013C32.2247 65.0867 31.0017 63.2563 29.4598 61.7144C27.9179 60.1725 26.0875 58.9495 24.0729 58.115C22.0584 57.2806 19.8992 56.8511 17.7187 56.8511C15.5382 56.8511 13.379 57.2806 11.3645 58.115C9.34991 58.9495 7.51945 60.1725 5.97759 61.7144C4.43572 63.2563 3.21265 65.0867 2.3782 67.1013C1.54374 69.1158 1.11426 71.275 1.11426 73.4555Z" fill="#F9F3FF" stroke="#66160E" stroke-width="1.5" stroke-linecap="round" stroke-linejoin="round"/>
<path d="M26.5837 77.6836C26.5805 77.323 26.4525 76.9745 26.2216 76.6974C25.9906 76.4204 25.6709 76.2318 25.3167 76.1636V75.1497C25.3309 74.1422 25.1447 73.1418 24.769 72.2068C24.3932 71.2718 23.8353 70.4209 23.1278 69.7033C22.4203 68.9858 21.5773 68.416 20.6477 68.0271C19.7181 67.6383 18.7205 67.438 17.7128 67.438C16.7051 67.438 15.7075 67.6383 14.7779 68.0271C13.8483 68.416 13.0052 68.9858 12.2977 69.7033C11.5902 70.4209 11.0324 71.2718 10.6566 72.2068C10.2808 73.1418 10.0946 74.1422 10.1088 75.1497V76.1636C9.7394 76.2328 9.40766 76.4337 9.17519 76.729C8.94273 77.0243 8.82536 77.394 8.84487 77.7693C8.86438 78.1446 9.01945 78.5001 9.28129 78.7698C9.54312 79.0394 9.89391 79.2048 10.2685 79.2353C10.6255 80.9455 11.5604 82.4807 12.9162 83.5827C14.2719 84.6846 15.9657 85.2862 17.7128 85.2862C19.4599 85.2862 21.1537 84.6846 22.5094 83.5827C23.8651 82.4807 24.8001 80.9455 25.1571 79.2353C25.5453 79.2005 25.9065 79.0222 26.1703 78.7353C26.4341 78.4483 26.5815 78.0734 26.5837 77.6836Z" fill="#F9F3FF" stroke="#66160E" stroke-width="1.5" stroke-linecap="round" stroke-linejoin="round"/>
<path d="M12.6504 78.6354C12.6504 78.8875 12.7505 79.1293 12.9288 79.3076C13.1071 79.4858 13.3489 79.586 13.601 79.586C13.8531 79.586 14.0949 79.4858 14.2731 79.3076C14.4514 79.1293 14.5516 78.8875 14.5516 78.6354C14.5516 78.3833 14.4514 78.1415 14.2731 77.9632C14.0949 77.785 13.8531 77.6848 13.601 77.6848C13.3489 77.6848 13.1071 77.785 12.9288 77.9632C12.7505 78.1415 12.6504 78.3833 12.6504 78.6354Z" fill="#F8C1C3"/>
<path d="M20.8877 78.6354C20.8877 78.7602 20.9123 78.8839 20.9601 78.9992C21.0078 79.1145 21.0778 79.2193 21.1661 79.3076C21.2544 79.3958 21.3592 79.4659 21.4745 79.5136C21.5898 79.5614 21.7135 79.586 21.8383 79.586C21.9631 79.586 22.0867 79.5614 22.2021 79.5136C22.3174 79.4659 22.4222 79.3958 22.5105 79.3076C22.5987 79.2193 22.6687 79.1145 22.7165 78.9992C22.7643 78.8839 22.7889 78.7602 22.7889 78.6354C22.7889 78.5106 22.7643 78.387 22.7165 78.2716C22.6687 78.1563 22.5987 78.0515 22.5105 77.9632C22.4222 77.875 22.3174 77.8049 22.2021 77.7572C22.0867 77.7094 21.9631 77.6848 21.8383 77.6848C21.7135 77.6848 21.5898 77.7094 21.4745 77.7572C21.3592 77.8049 21.2544 77.875 21.1661 77.9632C21.0778 78.0515 21.0078 78.1563 20.9601 78.2716C20.9123 78.387 20.8877 78.5106 20.8877 78.6354Z" fill="#F8C1C3"/>
<path d="M15.8193 80.9094C16.3819 81.2852 17.0432 81.4858 17.7198 81.4858C18.3963 81.4858 19.0576 81.2852 19.6202 80.9094" stroke="#66160E" stroke-width="1.5" stroke-linecap="round" stroke-linejoin="round"/>
<path d="M25.9556 73.2492C25.9703 72.1582 25.7682 71.0751 25.3609 70.0629C24.9536 69.0506 24.3492 68.1293 23.5829 67.3526C22.8166 66.5759 21.9036 65.9591 20.8969 65.5381C19.8903 65.1172 18.81 64.9004 17.7189 64.9004C16.6278 64.9004 15.5475 65.1172 14.5408 65.5381C13.5342 65.9591 12.6212 66.5759 11.8549 67.3526C11.0886 68.1293 10.4842 69.0506 10.0769 70.0629C9.66959 71.0751 9.46744 72.1582 9.4822 73.2492V75.1504C9.4822 75.3182 9.54886 75.4791 9.66752 75.5978C9.78618 75.7165 9.94711 75.7831 10.1149 75.7831H11.3834C11.5512 75.7831 11.7121 75.7165 11.8308 75.5978C11.9494 75.4791 12.0161 75.3182 12.0161 75.1504C12.0167 74.3959 12.1689 73.6491 12.4637 72.9546C12.7584 72.26 13.1897 71.6317 13.732 71.107C13.8705 70.971 14.0385 70.8687 14.223 70.8081C14.4074 70.7475 14.6033 70.7302 14.7956 70.7575C15.5951 70.8571 16.3379 71.2227 16.9046 71.7955C17.6534 72.5675 18.6407 73.0644 19.7069 73.2058C20.7731 73.3471 21.8558 73.1246 22.7799 72.5743C23.0979 73.1916 23.302 73.8611 23.3825 74.5508C23.4006 74.7158 23.4788 74.8684 23.6021 74.9796C23.7255 75.0907 23.8854 75.1526 24.0514 75.1534H25.3183C25.4863 75.153 25.6472 75.086 25.7658 74.9671C25.8844 74.8482 25.9511 74.6871 25.9511 74.5192L25.9556 73.2492Z" fill="#F9F3FF" stroke="#66160E" stroke-width="1.5" stroke-linecap="round" stroke-linejoin="round"/>
<path d="M25.9556 73.2492C25.9703 72.1582 25.7682 71.0751 25.3609 70.0629C24.9536 69.0506 24.3492 68.1293 23.5829 67.3526C22.8166 66.5759 21.9036 65.9591 20.8969 65.5381C19.8903 65.1172 18.81 64.9004 17.7189 64.9004C16.6278 64.9004 15.5475 65.1172 14.5408 65.5381C13.5342 65.9591 12.6212 66.5759 11.8549 67.3526C11.0886 68.1293 10.4842 69.0506 10.0769 70.0629C9.66959 71.0751 9.46744 72.1582 9.4822 73.2492V75.1504C9.4822 75.3182 9.54886 75.4791 9.66752 75.5978C9.78618 75.7165 9.94711 75.7831 10.1149 75.7831H11.3834C11.5512 75.7831 11.7121 75.7165 11.8308 75.5978C11.9494 75.4791 12.0161 75.3182 12.0161 75.1504C12.0167 74.3959 12.1689 73.6491 12.4637 72.9546C12.7584 72.26 13.1897 71.6317 13.732 71.107C13.8705 70.971 14.0385 70.8687 14.223 70.8081C14.4074 70.7475 14.6033 70.7302 14.7956 70.7575C15.5951 70.8571 16.3379 71.2227 16.9046 71.7955C17.6534 72.5675 18.6407 73.0644 19.7069 73.2058C20.7731 73.3471 21.8558 73.1246 22.7799 72.5743C23.0979 73.1916 23.302 73.8611 23.3825 74.5508C23.4006 74.7158 23.4788 74.8684 23.6021 74.9796C23.7255 75.0907 23.8854 75.1526 24.0514 75.1534H25.3183C25.4863 75.153 25.6472 75.086 25.7658 74.9671C25.8844 74.8482 25.9511 74.6871 25.9511 74.5192L25.9556 73.2492Z" stroke="#66160E" stroke-width="1.5" stroke-linecap="round" stroke-linejoin="round"/>
<path d="M22.7802 72.575C22.8472 72.5353 22.9009 72.4768 22.9348 72.4067C22.9687 72.3366 22.9812 72.2582 22.9708 72.181C22.9603 72.1039 22.9274 72.0315 22.8761 71.973C22.8248 71.9145 22.7574 71.8724 22.6823 71.8519C21.6878 71.5715 20.8271 70.9434 20.2568 70.0818" fill="#FFDF3D"/>
<path d="M22.7802 72.575C22.8472 72.5353 22.9009 72.4768 22.9348 72.4067C22.9687 72.3366 22.9812 72.2582 22.9708 72.181C22.9603 72.1039 22.9274 72.0315 22.8761 71.973C22.8248 71.9145 22.7574 71.8724 22.6823 71.8519C21.6878 71.5715 20.8271 70.9434 20.2568 70.0818" stroke="#66160E" stroke-width="1.5" stroke-linecap="round" stroke-linejoin="round"/>
<path d="M13.918 76.0998C13.918 76.2246 13.9426 76.3482 13.9903 76.4635C14.0381 76.5789 14.1081 76.6837 14.1964 76.7719C14.2847 76.8602 14.3895 76.9302 14.5048 76.978C14.6201 77.0258 14.7437 77.0504 14.8686 77.0504C14.9934 77.0504 15.117 77.0258 15.2323 76.978C15.3477 76.9302 15.4525 76.8602 15.5407 76.7719C15.629 76.6837 15.699 76.5789 15.7468 76.4635C15.7946 76.3482 15.8191 76.2246 15.8191 76.0998C15.8191 75.9749 15.7946 75.8513 15.7468 75.736C15.699 75.6207 15.629 75.5159 15.5407 75.4276C15.4525 75.3393 15.3477 75.2693 15.2323 75.2215C15.117 75.1738 14.9934 75.1492 14.8686 75.1492C14.7437 75.1492 14.6201 75.1738 14.5048 75.2215C14.3895 75.2693 14.2847 75.3393 14.1964 75.4276C14.1081 75.5159 14.0381 75.6207 13.9903 75.736C13.9426 75.8513 13.918 75.9749 13.918 76.0998Z" fill="#66160E"/>
<path d="M19.6201 76.0998C19.6201 76.3519 19.7203 76.5937 19.8985 76.7719C20.0768 76.9502 20.3186 77.0504 20.5707 77.0504C20.8228 77.0504 21.0646 76.9502 21.2429 76.7719C21.4211 76.5937 21.5213 76.3519 21.5213 76.0998C21.5213 75.8476 21.4211 75.6059 21.2429 75.4276C21.0646 75.2493 20.8228 75.1492 20.5707 75.1492C20.3186 75.1492 20.0768 75.2493 19.8985 75.4276C19.7203 75.6059 19.6201 75.8476 19.6201 76.0998Z" fill="#66160E"/>
<path d="M17.7198 65.0114C18.7989 65.0097 19.8677 65.2206 20.8652 65.6321C21.8627 66.0437 22.7693 66.6477 23.5333 67.4097C23.8702 66.8816 24.0514 66.2691 24.0561 65.6426C24.0561 63.1931 21.2194 61.2061 17.7198 61.2061C14.2202 61.2061 11.3926 63.1931 11.3926 65.6426C11.395 66.2684 11.5736 66.8808 11.9078 67.4097C12.6715 66.6478 13.5779 66.0438 14.5752 65.6323C15.5724 65.2208 16.641 65.0098 17.7198 65.0114Z" fill="#F9F3FF" stroke="#66160E" stroke-width="1.5" stroke-linecap="round" stroke-linejoin="round"/>
<path d="M73.3447 17.6044C73.3447 22.0082 75.0941 26.2316 78.2081 29.3455C81.322 32.4595 85.5454 34.2089 89.9492 34.2089C94.3529 34.2089 98.5763 32.4595 101.69 29.3455C104.804 26.2316 106.554 22.0082 106.554 17.6044C106.554 13.2007 104.804 8.97726 101.69 5.86333C98.5763 2.74939 94.3529 1 89.9492 1C85.5454 1 81.322 2.74939 78.2081 5.86333C75.0941 8.97726 73.3447 13.2007 73.3447 17.6044Z" fill="#F9F3FF" stroke="#66160E" stroke-width="1.5" stroke-linecap="round" stroke-linejoin="round"/>
<path d="M100.72 21.9151C100.716 21.5063 100.571 21.1114 100.309 20.7975C100.047 20.4836 99.684 20.2701 99.2824 20.1932V19.0438C99.2824 16.7588 98.3747 14.5674 96.759 12.9517C95.1432 11.3359 92.9518 10.4282 90.6668 10.4282C88.3819 10.4282 86.1905 11.3359 84.5747 12.9517C82.959 14.5674 82.0513 16.7588 82.0513 19.0438V20.1932C81.6318 20.2707 81.2547 20.498 80.9904 20.8328C80.7261 21.1677 80.5925 21.5872 80.6147 22.0133C80.6368 22.4393 80.8131 22.8427 81.1106 23.1484C81.4082 23.4541 81.8068 23.6412 82.2321 23.6747C82.6356 25.6137 83.6948 27.3545 85.2313 28.6041C86.7678 29.8538 88.6878 30.536 90.6684 30.536C92.6489 30.536 94.5689 29.8538 96.1054 28.6041C97.642 27.3545 98.7011 25.6137 99.1046 23.6747C99.5443 23.6343 99.9531 23.4318 100.252 23.1065C100.55 22.7813 100.717 22.3566 100.72 21.9151Z" fill="#F9F3FF" stroke="#66160E" stroke-width="1.5" stroke-linecap="round" stroke-linejoin="round"/>
<path d="M100.72 21.9151C100.716 21.5063 100.571 21.1114 100.309 20.7975C100.047 20.4836 99.684 20.2701 99.2824 20.1932V19.0438C99.2824 16.7588 98.3747 14.5674 96.759 12.9517C95.1432 11.3359 92.9518 10.4282 90.6668 10.4282C88.3819 10.4282 86.1905 11.3359 84.5747 12.9517C82.959 14.5674 82.0513 16.7588 82.0513 19.0438V20.1932C81.6318 20.2707 81.2547 20.498 80.9904 20.8328C80.7261 21.1677 80.5925 21.5872 80.6147 22.0133C80.6368 22.4393 80.8131 22.8427 81.1106 23.1484C81.4082 23.4541 81.8068 23.6412 82.2321 23.6747C82.6356 25.6137 83.6948 27.3545 85.2313 28.6041C86.7678 29.8538 88.6878 30.536 90.6684 30.536C92.6489 30.536 94.5689 29.8538 96.1054 28.6041C97.642 27.3545 98.7011 25.6137 99.1046 23.6747C99.5443 23.6343 99.9531 23.4318 100.252 23.1065C100.55 22.7813 100.717 22.3566 100.72 21.9151V21.9151Z" stroke="#66160E" stroke-width="1.5" stroke-linecap="round" stroke-linejoin="round"/>
<path d="M86.3594 20.1177C86.3594 20.4033 86.4729 20.6773 86.6749 20.8793C86.8769 21.0813 87.1508 21.1948 87.4365 21.1948C87.7222 21.1948 87.9962 21.0813 88.1982 20.8793C88.4002 20.6773 88.5136 20.4033 88.5136 20.1177C88.5136 19.832 88.4002 19.558 88.1982 19.356C87.9962 19.154 87.7222 19.0405 87.4365 19.0405C87.1508 19.0405 86.8769 19.154 86.6749 19.356C86.4729 19.558 86.3594 19.832 86.3594 20.1177Z" fill="#66160E"/>
<path d="M92.8203 20.1177C92.8203 20.4033 92.9338 20.6773 93.1358 20.8793C93.3378 21.0813 93.6118 21.1948 93.8974 21.1948C94.1831 21.1948 94.4571 21.0813 94.6591 20.8793C94.8611 20.6773 94.9746 20.4033 94.9746 20.1177C94.9746 19.832 94.8611 19.558 94.6591 19.356C94.4571 19.154 94.1831 19.0405 93.8974 19.0405C93.6118 19.0405 93.3378 19.154 93.1358 19.356C92.9338 19.558 92.8203 19.832 92.8203 20.1177Z" fill="#66160E"/>
<path d="M84.9238 22.9885C84.9238 23.2742 85.0373 23.5482 85.2393 23.7502C85.4413 23.9522 85.7153 24.0656 86.001 24.0656C86.2866 24.0656 86.5606 23.9522 86.7626 23.7502C86.9646 23.5482 87.0781 23.2742 87.0781 22.9885C87.0781 22.7028 86.9646 22.4289 86.7626 22.2269C86.5606 22.0249 86.2866 21.9114 86.001 21.9114C85.7153 21.9114 85.4413 22.0249 85.2393 22.2269C85.0373 22.4289 84.9238 22.7028 84.9238 22.9885Z" fill="#F8C1C3"/>
<path d="M94.2549 22.9885C94.2549 23.2742 94.3684 23.5482 94.5704 23.7502C94.7724 23.9522 95.0463 24.0656 95.332 24.0656C95.6177 24.0656 95.8917 23.9522 96.0937 23.7502C96.2957 23.5482 96.4092 23.2742 96.4092 22.9885C96.4092 22.7028 96.2957 22.4289 96.0937 22.2269C95.8917 22.0249 95.6177 21.9114 95.332 21.9114C95.0463 21.9114 94.7724 22.0249 94.5704 22.2269C94.3684 22.4289 94.2549 22.7028 94.2549 22.9885Z" fill="#F8C1C3"/>
<path d="M88.5127 25.5684C89.1504 25.9935 89.8997 26.2204 90.6662 26.2204C91.4327 26.2204 92.182 25.9935 92.8197 25.5684" stroke="#66160E" stroke-width="1.5" stroke-linecap="round" stroke-linejoin="round"/>
<path d="M81.332 12.5745V19.0358C81.332 19.2261 81.4075 19.4086 81.542 19.5434C81.6764 19.6781 81.8588 19.754 82.0491 19.7544H82.7752L85.6376 12.5745H81.332Z" fill="#F9F3FF" stroke="#66160E" stroke-width="1.5" stroke-linecap="round" stroke-linejoin="round"/>
<path d="M99.9999 13.2962C99.9995 11.773 99.3941 10.3123 98.3169 9.2354C97.2397 8.15848 95.7789 7.55349 94.2557 7.55349H87.7944C87.5201 7.55355 87.2516 7.47496 87.0206 7.32703C86.7896 7.17911 86.6059 6.96806 86.4913 6.7189C86.4157 6.55192 86.297 6.40808 86.1474 6.30217C85.9978 6.19627 85.8227 6.13211 85.6401 6.11631H84.4198C83.3201 6.09505 82.2515 6.48137 81.4196 7.20091C80.5877 7.92044 80.0514 8.9223 79.914 10.0136C79.8066 11.1402 80.1469 12.2638 80.8612 13.1416C81.5755 14.0194 82.6065 14.5809 83.7314 14.7048C83.9345 15.467 84.3617 16.1506 84.9577 16.6674C85.5537 17.1841 86.291 17.5101 87.0743 17.6032H88.5114C88.5682 17.6027 88.6231 17.5837 88.6681 17.5491C88.713 17.5145 88.7454 17.4662 88.7604 17.4115C88.7754 17.3568 88.7722 17.2987 88.7512 17.2461C88.7302 17.1934 88.6925 17.149 88.644 17.1197C87.9915 16.7301 87.5165 16.1016 87.3198 15.3676C87.2975 15.2938 87.2927 15.2157 87.306 15.1398C87.3192 15.0638 87.35 14.9919 87.396 14.93C87.442 14.868 87.5018 14.8177 87.5707 14.7831C87.6396 14.7484 87.7157 14.7304 87.7929 14.7304H93.6591C93.8478 14.7304 94.0346 14.7676 94.2089 14.84C94.3831 14.9124 94.5413 15.0185 94.6745 15.1522L98.5627 19.0389H99.2798C99.3742 19.0391 99.4677 19.0207 99.555 18.9846C99.6423 18.9486 99.7216 18.8956 99.7883 18.8289C99.8551 18.7621 99.908 18.6828 99.9441 18.5955C99.9801 18.5083 99.9986 18.4147 99.9984 18.3203L99.9999 13.2962Z" fill="#F9F3FF"/>
<path d="M99.9999 13.2962C99.9995 11.773 99.3941 10.3123 98.3169 9.2354C97.2397 8.15848 95.7789 7.55349 94.2557 7.55349H87.7944C87.5201 7.55355 87.2516 7.47496 87.0206 7.32703C86.7896 7.17911 86.6059 6.96806 86.4913 6.7189C86.4157 6.55192 86.297 6.40808 86.1474 6.30217C85.9978 6.19627 85.8227 6.13211 85.6401 6.11631H84.4198C83.3201 6.09505 82.2515 6.48137 81.4196 7.20091C80.5877 7.92044 80.0514 8.9223 79.914 10.0136C79.8066 11.1402 80.1469 12.2638 80.8612 13.1416C81.5755 14.0194 82.6065 14.5809 83.7314 14.7048C83.9345 15.467 84.3617 16.1506 84.9577 16.6674C85.5537 17.1841 86.291 17.5101 87.0743 17.6032H88.5114C88.5682 17.6027 88.6231 17.5837 88.6681 17.5491C88.713 17.5145 88.7454 17.4662 88.7604 17.4115C88.7754 17.3568 88.7722 17.2987 88.7512 17.2461C88.7302 17.1934 88.6925 17.149 88.644 17.1197C87.9915 16.7301 87.5165 16.1016 87.3198 15.3676C87.2975 15.2938 87.2927 15.2157 87.306 15.1398C87.3192 15.0638 87.35 14.9919 87.396 14.93C87.442 14.868 87.5018 14.8177 87.5707 14.7831C87.6396 14.7484 87.7157 14.7304 87.7929 14.7304H93.6591C93.8478 14.7304 94.0346 14.7676 94.2089 14.84C94.3831 14.9124 94.5413 15.0185 94.6745 15.1522L98.5627 19.0389H99.2798C99.3742 19.0391 99.4677 19.0207 99.555 18.9846C99.6423 18.9486 99.7216 18.8956 99.7883 18.8289C99.8551 18.7621 99.908 18.6828 99.9441 18.5955C99.9801 18.5083 99.9986 18.4147 99.9984 18.3203L99.9999 13.2962Z" stroke="#66160E" stroke-width="1.5" stroke-linecap="round" stroke-linejoin="round"/>
<path d="M111.99 96.1519L118.019 90.1238L128.567 100.673L122.539 106.701L111.99 96.1519Z" fill="#F9F3FF" stroke="#66160E" stroke-width="1.5" stroke-linecap="round" stroke-linejoin="round"/>
<path d="M149.061 126.916L148.774 127.204C147.609 128.359 146.035 129.008 144.395 129.008C142.755 129.008 141.181 128.359 140.016 127.204L120.982 108.162C120.597 107.774 120.381 107.249 120.381 106.703C120.381 106.156 120.597 105.631 120.982 105.243L127.107 99.1174C127.495 98.7324 128.02 98.5164 128.566 98.5164C129.113 98.5164 129.637 98.7324 130.025 99.1174L149.061 118.152C149.639 118.726 150.098 119.409 150.411 120.161C150.724 120.913 150.885 121.719 150.885 122.534C150.885 123.349 150.724 124.155 150.411 124.908C150.098 125.66 149.639 126.342 149.061 126.916Z" fill="#F8C1C3"/>
<path d="M149.061 126.916L148.774 127.204C147.609 128.359 146.035 129.008 144.395 129.008C142.755 129.008 141.181 128.359 140.016 127.204L120.982 108.162C120.597 107.774 120.381 107.249 120.381 106.703C120.381 106.156 120.597 105.631 120.982 105.243L127.107 99.1174C127.495 98.7324 128.02 98.5164 128.566 98.5164C129.113 98.5164 129.637 98.7324 130.025 99.1174L149.061 118.152C149.639 118.726 150.098 119.409 150.411 120.161C150.724 120.913 150.885 121.719 150.885 122.534C150.885 123.349 150.724 124.155 150.411 124.908C150.098 125.66 149.639 126.342 149.061 126.916Z" stroke="#66160E" stroke-width="1.5" stroke-linecap="round" stroke-linejoin="round"/>
<path d="M66.6367 90.2323C71.0624 97.4647 78.18 102.643 86.4236 104.627C94.6672 106.612 103.362 105.24 110.594 100.815C117.826 96.3889 123.004 89.2713 124.989 81.0277C126.974 72.7841 125.602 64.0898 121.176 56.8574C116.751 49.625 109.633 44.4469 101.389 42.4623C93.1458 40.4777 84.4515 41.8492 77.2191 46.275C69.9867 50.7007 64.8086 57.8183 62.824 66.0619C60.8394 74.3055 62.2109 82.9998 66.6367 90.2323Z" fill="#F9F3FF" stroke="#66160E" stroke-width="1.5" stroke-linecap="round" stroke-linejoin="round"/>
<path d="M111.992 55.4611C115.569 59.0379 118.004 63.5951 118.991 68.5562C119.978 73.5173 119.471 78.6596 117.535 83.3328C115.599 88.006 112.321 92.0002 108.115 94.8104C103.91 97.6206 98.9649 99.1205 93.9066 99.1205C88.8483 99.1205 83.9036 97.6206 79.6978 94.8104C75.492 92.0002 72.2139 88.006 70.2781 83.3328C68.3423 78.6596 67.8357 73.5173 68.8224 68.5562C69.809 63.5951 72.2447 59.0379 75.8213 55.4611C78.1962 53.0859 81.0157 51.2019 84.1188 49.9165C87.2219 48.6311 90.5478 47.9695 93.9066 47.9695C97.2654 47.9695 100.591 48.6311 103.694 49.9165C106.797 51.2019 109.617 53.0859 111.992 55.4611Z" fill="#F8C1C3"/>
<path d="M111.992 55.4611C115.569 59.0379 118.004 63.5951 118.991 68.5562C119.978 73.5173 119.471 78.6596 117.535 83.3328C115.599 88.006 112.321 92.0002 108.115 94.8104C103.91 97.6206 98.9649 99.1206 93.9066 99.1206C88.8483 99.1206 83.9036 97.6206 79.6978 94.8104C75.492 92.0002 72.2139 88.006 70.2781 83.3328C68.3423 78.6596 67.8357 73.5173 68.8224 68.5562C69.809 63.5951 72.2447 59.0379 75.8213 55.4611C78.1962 53.0859 81.0157 51.2019 84.1188 49.9165C87.2219 48.6311 90.5478 47.9695 93.9066 47.9695C97.2654 47.9695 100.591 48.6311 103.694 49.9165C106.797 51.2019 109.617 53.0859 111.992 55.4611V55.4611Z" stroke="#66160E" stroke-width="1.5" stroke-linecap="round" stroke-linejoin="round"/>
<path d="M44.7695 104.679C44.7695 107.481 45.8825 110.167 47.8635 112.148C49.8445 114.129 52.5314 115.242 55.333 115.242C58.1346 115.242 60.8214 114.129 62.8025 112.148C64.7835 110.167 65.8964 107.481 65.8964 104.679C65.8964 101.877 64.7835 99.1905 62.8025 97.2094C60.8214 95.2284 58.1346 94.1155 55.333 94.1155C52.5314 94.1155 49.8445 95.2284 47.8635 97.2094C45.8825 99.1905 44.7695 101.877 44.7695 104.679Z" fill="#F9F3FF" stroke="#66160E" stroke-width="1.5" stroke-linecap="round" stroke-linejoin="round"/>
<path d="M51.9346 104.434C51.9346 105.335 52.2926 106.2 52.93 106.837C53.5674 107.475 54.4318 107.833 55.3332 107.833C56.2346 107.833 57.099 107.475 57.7364 106.837C58.3737 106.2 58.7318 105.335 58.7318 104.434V102.735C58.7318 101.833 58.3737 100.969 57.7364 100.332C57.099 99.6942 56.2346 99.3362 55.3332 99.3362C54.4318 99.3362 53.5674 99.6942 52.93 100.332C52.2926 100.969 51.9346 101.833 51.9346 102.735V104.434Z" fill="#F9F3FF" stroke="#66160E" stroke-width="1.5" stroke-linecap="round" stroke-linejoin="round"/>
<path d="M62.3951 112.534C60.4564 114.276 57.9421 115.239 55.3357 115.239C52.7294 115.239 50.215 114.276 48.2764 112.534C48.8564 111.141 49.8354 109.952 51.09 109.115C52.3447 108.277 53.8189 107.83 55.3272 107.829C56.8355 107.827 58.3105 108.272 59.5666 109.107C60.8226 109.942 61.8036 111.13 62.3861 112.522" fill="#F8C1C3"/>
<path d="M62.3951 112.534C60.4564 114.276 57.9421 115.239 55.3357 115.239C52.7294 115.239 50.215 114.276 48.2764 112.534C48.8564 111.141 49.8354 109.952 51.09 109.115C52.3447 108.277 53.8189 107.83 55.3272 107.829C56.8355 107.827 58.3105 108.272 59.5666 109.107C60.8226 109.942 61.8036 111.13 62.3861 112.522" stroke="#66160E" stroke-width="1.5" stroke-linecap="round" stroke-linejoin="round"/>
<path d="M51.9619 102.296C52.0511 101.611 52.3472 100.969 52.8105 100.456C53.2739 99.9434 53.8826 99.5841 54.5554 99.4261C55.2283 99.2682 55.9332 99.3191 56.5764 99.5722C57.2195 99.8252 57.7702 100.268 58.1551 100.842C57.3509 101.622 56.3501 102.169 55.2595 102.425C54.1688 102.681 53.0292 102.637 51.9619 102.296Z" fill="#F8C1C3" stroke="#66160E" stroke-width="1.5" stroke-linecap="round" stroke-linejoin="round"/>
<path d="M26.6221 28.4736C26.6221 31.2752 27.735 33.9621 29.716 35.9431C31.6971 37.9241 34.3839 39.037 37.1855 39.037C39.9871 39.037 42.674 37.9241 44.655 35.9431C46.636 33.9621 47.749 31.2752 47.749 28.4736C47.749 25.672 46.636 22.9851 44.655 21.0041C42.674 19.0231 39.9871 17.9102 37.1855 17.9102C34.3839 17.9102 31.6971 19.0231 29.716 21.0041C27.735 22.9851 26.6221 25.672 26.6221 28.4736Z" fill="#F9F3FF" stroke="#66160E" stroke-width="1.5" stroke-linecap="round" stroke-linejoin="round"/>
<path d="M33.7852 28.2286C33.8039 29.1177 34.1702 29.9642 34.8057 30.5864C35.4412 31.2086 36.2952 31.5571 37.1845 31.5571C38.0739 31.5571 38.9279 31.2086 39.5633 30.5864C40.1988 29.9642 40.5652 29.1177 40.5839 28.2286V26.5292C40.5652 25.6401 40.1988 24.7936 39.5633 24.1714C38.9279 23.5492 38.0739 23.2007 37.1845 23.2007C36.2952 23.2007 35.4412 23.5492 34.8057 24.1714C34.1702 24.7936 33.8039 25.6401 33.7852 26.5292V28.2286Z" fill="#F9F3FF" stroke="#66160E" stroke-width="1.5" stroke-linecap="round" stroke-linejoin="round"/>
<path d="M44.2467 36.3305C42.3075 38.0716 39.7934 39.0347 37.1873 39.0347C34.5812 39.0347 32.0671 38.0716 30.1279 36.3305C30.708 34.9382 31.687 33.7486 32.9416 32.9114C34.1962 32.0742 35.6705 31.6268 37.1788 31.6255C38.6871 31.6242 40.1621 32.0691 41.4181 32.9042C42.6742 33.7392 43.6552 34.9272 44.2376 36.3185" fill="#F8C1C3"/>
<path d="M44.2467 36.3305C42.3075 38.0716 39.7934 39.0347 37.1873 39.0347C34.5812 39.0347 32.0671 38.0716 30.1279 36.3305C30.708 34.9382 31.687 33.7486 32.9416 32.9114C34.1962 32.0742 35.6705 31.6268 37.1788 31.6255C38.6871 31.6242 40.1621 32.0691 41.4181 32.9042C42.6742 33.7392 43.6552 34.9272 44.2376 36.3185" stroke="#66160E" stroke-width="1.5" stroke-linecap="round" stroke-linejoin="round"/>
<path d="M33.8154 26.0902C33.9041 25.4045 34.2 24.7622 34.6634 24.2491C35.1268 23.736 35.7358 23.3765 36.4089 23.2186C37.0821 23.0608 37.7874 23.1121 38.4306 23.3657C39.0738 23.6193 39.6243 24.0632 40.0086 24.6379C39.2041 25.4175 38.2033 25.9642 37.1127 26.22C36.0221 26.4757 34.8826 26.4308 33.8154 26.0902Z" fill="#F8C1C3" stroke="#66160E" stroke-width="1.5" stroke-linecap="round" stroke-linejoin="round"/>
</svg>
