<svg width="420" height="330" viewBox="0 0 420 330" fill="none" xmlns="http://www.w3.org/2000/svg">
	<mask id="mask0_1354_10260" style="mask-type:alpha" maskUnits="userSpaceOnUse" x="110" y="103" width="211" height="227">
		<path d="M138.094 103.793L305.319 143.694C315.029 146.01 321.514 155.171 320.471 165.1L304.789 314.421C303.806 323.777 295.425 330.566 286.069 329.583C285.966 329.572 285.864 329.56 285.761 329.548L125.407 309.756C116.751 308.688 110.3 301.254 110.462 292.534L113.612 122.755C113.815 111.781 122.876 103.05 133.85 103.254C135.28 103.28 136.703 103.461 138.094 103.793Z" fill="white" />
	</mask>
	<g mask="url(#mask0_1354_10260)">
		<path d="M138.093 103.793L305.318 143.694C315.028 146.01 321.513 155.171 320.47 165.1L304.788 314.421C303.805 323.777 295.424 330.566 286.068 329.583C285.965 329.572 285.863 329.56 285.76 329.548L125.406 309.756C116.75 308.688 110.299 301.254 110.461 292.534L113.611 122.755C113.814 111.781 122.875 103.05 133.849 103.254C135.279 103.28 136.702 103.461 138.093 103.793Z" fill="#6B4196" />
		<path fill-rule="evenodd" clip-rule="evenodd" d="M110.178 285.414L209.542 214.866L244.421 241.634L196.361 323.763L112.814 315.855C111.452 306.906 110.574 300.146 110.178 295.576C109.782 291.005 109.782 287.618 110.178 285.414Z" fill="#59377C" />
	</g>
	<path d="M204.88 120.338C204.881 120.393 204.878 120.449 204.87 120.505L200.385 153.039C202.747 153.727 204.472 155.908 204.472 158.491C204.472 161.608 201.96 164.139 198.851 164.169L196.127 183.926C198.383 184.677 200.011 186.806 200.011 189.315C200.011 192.361 197.613 194.846 194.602 194.987L189.661 230.822C189.585 231.377 189.073 231.765 188.518 231.688C187.964 231.612 187.576 231.1 187.652 230.545L192.591 194.721C190.307 193.986 188.655 191.843 188.655 189.315C188.655 186.251 191.082 183.753 194.119 183.641L196.85 163.828C194.672 163.034 193.116 160.944 193.116 158.491C193.116 155.499 195.43 153.047 198.367 152.829L202.861 120.229C202.868 120.184 202.876 120.141 202.888 120.099L145.666 141.254L181.965 114.081L223.739 124.017L240.773 160.925L204.88 120.338ZM289.693 198.163L291.621 198.792L250.761 324.078L248.833 323.449L289.693 198.163ZM159.658 250.963L110.786 285.031L113.625 120.367L122.065 143.362L159.658 250.963Z" fill="#AB2C27" />
	<mask id="mask1_1354_10260" style="mask-type:alpha" maskUnits="userSpaceOnUse" x="190" y="3" width="88" height="122">
		<path d="M234.313 99.9037L234.297 124.937L191.467 122.605L191.034 70.5972C190.881 69.3016 190.802 67.9832 190.802 66.6465V36.561C190.802 18.1935 205.692 3.30371 224.059 3.30371H244.483C262.851 3.30371 277.741 18.1935 277.741 36.561V66.6465C277.741 85.0139 262.851 99.9037 244.483 99.9037H234.313Z" fill="white" />
	</mask>
	<g mask="url(#mask1_1354_10260)">
		<path d="M228.1 99.3678L223.737 124.018L181.962 114.284L190.567 62.9911C190.641 61.6886 190.792 60.3766 191.024 59.0601L196.248 29.4317C199.438 11.3433 216.687 -0.73473 234.775 2.45475L254.89 6.00141C272.978 9.19088 285.056 26.44 281.866 44.5285L276.642 74.1569C273.453 92.2453 256.204 104.323 238.115 101.134L228.1 99.3678Z" fill="#81A6FF" />
	</g>
	<mask id="mask2_1354_10260" style="mask-type:alpha" maskUnits="userSpaceOnUse" x="190" y="3" width="88" height="122">
		<path d="M234.157 99.891L234.141 124.924L191.311 122.592L190.878 70.5845C190.724 69.2889 190.646 67.9706 190.646 66.6338V36.5483C190.646 18.1808 205.535 3.29102 223.903 3.29102H244.327C262.695 3.29102 277.584 18.1808 277.584 36.5483V66.6338C277.584 85.0012 262.695 99.891 244.327 99.891H234.157Z" fill="white" />
	</mask>
	<g mask="url(#mask2_1354_10260)">
		<path d="M227.944 99.3551L223.581 124.005L181.807 114.271L190.411 62.9784C190.485 61.6759 190.637 60.3639 190.869 59.0474L196.093 29.419C199.283 11.3306 216.532 -0.747425 234.62 2.44205L254.734 5.98871C272.823 9.17819 284.901 26.4273 281.711 44.5158L276.487 74.1442C273.297 92.2326 256.048 104.311 237.96 101.121L227.944 99.3551Z" fill="#FF8181" />
		<path fill-rule="evenodd" clip-rule="evenodd" d="M196.157 35.8051L275.853 6.8064L229.341 -3.33301L192.507 3.73458L196.157 35.8051Z" fill="#383838" />
	</g>
	<path d="M179.037 14.8641L176.657 14.3582C164.826 11.8434 153.196 19.3959 150.681 31.2272L150.175 33.6075C147.66 45.4388 155.213 57.0687 167.044 59.5835L169.424 60.0895C181.256 62.6043 192.885 55.0518 195.4 43.2204L195.906 40.8402C198.421 29.0088 190.869 17.379 179.037 14.8641Z" fill="#383838" />
	<path fill-rule="evenodd" clip-rule="evenodd" d="M238.337 80.0122L245.31 85.591C246.723 86.7211 248.394 87.4836 250.173 87.8104L255.004 88.6977C256.548 88.9813 258.143 88.6954 259.492 87.8929L264.902 84.6763L260.824 80.5983C260.076 79.8497 259.009 79.5134 257.966 79.6974L256.182 80.0122L252.785 78.005C252.1 77.5998 251.289 77.461 250.508 77.6149L238.337 80.0122Z" fill="#383838" />
	<path d="M281.127 46.9582C275.415 44.9591 269.232 45.6738 262.165 48.4" stroke="#4F72C5" stroke-width="2.09276" stroke-linecap="round" stroke-linejoin="round" />
	<path fill-rule="evenodd" clip-rule="evenodd" d="M249.518 74.0652L262.672 76.6155C263.771 76.8287 264.835 76.1102 265.049 75.0107C265.108 74.7016 265.096 74.3829 265.011 74.0797C263.48 68.5926 262.648 64.3201 262.515 61.2623C262.358 57.6392 261.682 56.1521 260.488 56.801L261.053 47.0795L260.039 47.0795C255.269 58.7684 252.632 65.4604 252.128 67.1556C251.814 68.2101 247.539 68.7012 247.104 70.7934C247.023 71.1784 247.147 71.731 247.473 72.451C247.853 73.2886 248.615 73.8901 249.518 74.0652Z" fill="#C55858" />
	<path d="M299.164 119.683L292.237 118.337L273.659 213.913L280.586 215.259L299.164 119.683Z" fill="#59377C" />
	<path d="M290.463 149.857L289 149.573C284.383 148.675 279.912 151.691 279.015 156.308L268.31 211.377C267.413 215.995 270.428 220.465 275.046 221.363L276.508 221.647C281.126 222.545 285.597 219.529 286.494 214.912L297.198 159.843C298.096 155.226 295.08 150.755 290.463 149.857Z" fill="#383838" />
	<path fill-rule="evenodd" clip-rule="evenodd" d="M297.408 106.065L298.871 106.349C303.489 107.247 306.504 111.718 305.607 116.335L304.15 123.827C303.72 126.042 301.823 127.67 299.569 127.761C297.506 127.845 295.752 127.746 294.308 127.465C292.796 127.171 290.96 126.549 288.799 125.599C286.718 124.683 285.548 122.448 285.981 120.215L287.423 112.801C288.32 108.183 292.791 105.168 297.408 106.065Z" fill="#383838" />
	<path fill-rule="evenodd" clip-rule="evenodd" d="M261.716 98.2144C253.14 84.4905 252.546 68.39 257.196 54.2582C260.785 43.3543 267.14 33.6135 277.57 27.0959C285.735 21.9938 294.426 20.0461 303.229 19.7842C308.509 19.6271 313.894 19.5888 319.047 21.2037C324.246 22.8331 330.997 25.9568 335.675 29.3152C341.306 33.3573 344.669 37.986 348.441 44.0226C353.117 51.5059 355.546 59.8497 356.157 68.0478C356.481 72.3905 355.724 78.1575 354.94 82.2429C353.757 88.4139 351.871 92.7326 348.451 98.2632C344.523 104.616 339.362 110.908 332.587 115.141C327.47 118.339 322.102 120.674 316.613 121.787C308.481 123.435 300.107 122.682 292.076 120.367C286.727 118.825 280.636 116.191 275.853 113.067C269.984 109.234 265.647 104.506 261.716 98.2144ZM267.694 94.6101C280.673 115.381 307.902 121.78 328.511 108.902C349.12 96.0244 355.305 68.7463 342.325 47.975C329.346 27.2036 302.117 20.8048 281.508 33.6827C260.899 46.5607 254.714 73.8388 267.694 94.6101Z" fill="#6B4196" />
	<mask id="mask3_1354_10260" style="mask-type:alpha" maskUnits="userSpaceOnUse" x="259" y="26" width="91" height="90">
		<path d="M304.781 115.531C314.662 115.531 323.906 111.927 331.287 106.405C333.086 105.058 334.919 103.804 336.51 102.256C342.321 96.6013 346.322 89.5332 348.403 81.6665C349.292 78.3027 349.769 74.7536 349.769 71.0336C349.769 50.7594 335.605 34.604 316.856 29.2372C312.879 28.0987 309.129 26.5366 304.781 26.5366C290.515 26.5366 278.325 33.7627 270.083 44.009C263.972 51.607 259.794 60.5697 259.794 71.0336C259.794 79.568 262.631 87.5792 266.842 94.3517C274.758 107.081 288.564 115.531 304.781 115.531Z" fill="white" />
	</mask>
	<g mask="url(#mask3_1354_10260)">
		<path d="M267.047 94.6133C272.283 102.992 280.238 108.923 288.832 112.255C290.928 113.068 292.962 113.957 295.119 114.486C302.993 116.418 311.107 116.065 318.881 113.661C322.206 112.633 325.468 111.156 328.622 109.185C345.816 98.4412 352.011 77.8691 346.627 59.1249C345.485 55.1487 344.823 51.1411 342.518 47.4536C334.958 35.3549 322.371 28.847 309.314 27.2872C299.632 26.1305 289.817 27.337 280.943 32.8821C273.706 37.4046 268.415 44.0555 264.903 51.2162C258.303 64.6747 258.453 80.8602 267.047 94.6133Z" fill="white" />
		<path opacity="0.65332" fill-rule="evenodd" clip-rule="evenodd" d="M312.985 63.8851C311.049 63.0657 309.594 62.6165 307.446 62.1598C305.208 61.6841 303.051 61.5933 300.838 61.568C298.257 61.5384 295.784 62.0108 293.237 62.5945C291.071 63.0908 287.819 64.2691 283.482 66.1294C286.406 69.4923 288.702 71.8208 290.371 73.1149C292.919 75.0901 295.327 76.9628 298.299 78.1115C299.526 78.5853 301.013 79.1083 302.431 79.5055L279.087 114.057L260.549 88.3021L327.263 18.3364L337.535 27.5503L312.985 63.8851ZM320.025 67.8952C319.095 67.2027 318.092 66.5434 317.058 65.9357L340.813 31.3553L343.377 32.1394L320.025 67.8952ZM311.838 80.4305L285.411 120.895L283.148 115.299L307.161 80.3428C307.804 80.3978 308.45 80.4367 309.116 80.4721C310.025 80.5204 310.933 80.5021 311.838 80.4305Z" fill="#E0E0E0" />
		<path d="M312.985 81.384C311.622 81.552 310.335 81.599 309.024 81.5293C307.439 81.4449 306.281 81.35 305.196 81.1896L303.134 91.2634C303.022 91.812 302.486 92.1658 301.938 92.0535C301.389 91.9412 301.035 91.4055 301.147 90.8568L303.204 80.8078C301.629 80.4345 299.759 79.8215 297.896 79.102C297.067 78.7813 296.271 78.4085 295.466 77.9652L289.567 83.0156C289.142 83.3798 288.502 83.3303 288.138 82.9049C287.774 82.4795 287.823 81.8395 288.248 81.4753L293.643 76.8562C293.075 76.48 292.488 76.0655 291.868 75.6072C291.269 75.1638 290.818 74.8177 289.713 73.9609C287.979 72.6171 285.643 70.2482 282.679 66.8393C282.229 66.3207 282.413 65.5132 283.045 65.2422C287.433 63.3599 290.734 62.1639 292.973 61.6508C296.242 60.9017 298.459 60.5718 300.812 60.5988C303.667 60.6315 305.589 60.7811 307.619 61.2127C309.883 61.6939 311.412 62.1729 313.454 63.0431C315.946 64.1057 318.474 65.548 320.606 67.1365C322.475 68.5283 325.139 71.1217 328.628 74.9347C329.095 75.4447 328.926 76.2619 328.295 76.5445C325.038 78.0035 322.593 78.9863 320.942 79.497C318.696 80.1919 316.791 80.7065 315.059 81.048L317.617 86.6788C317.849 87.1887 317.623 87.7897 317.113 88.0213C316.603 88.2529 316.002 88.0273 315.771 87.5175L312.985 81.384ZM320.343 77.5597C321.68 77.146 323.627 76.3805 326.175 75.2658C323.235 72.1067 320.968 69.9346 319.395 68.7627C317.393 67.2715 315.005 65.909 312.659 64.9086C310.739 64.0905 309.335 63.6506 307.197 63.1963C305.325 62.7983 303.521 62.6578 300.789 62.6265C298.631 62.6018 296.552 62.9112 293.426 63.6275C291.548 64.0578 288.777 65.036 285.133 66.5599C287.579 69.3137 289.526 71.25 290.955 72.3583C292.048 73.2055 292.492 73.5459 293.074 73.977C295.16 75.5198 296.82 76.5119 298.627 77.2104C300.597 77.9715 302.574 78.6071 304.121 78.9358C305.596 79.2494 306.909 79.386 309.132 79.5043C312.342 79.6751 315.484 79.0632 320.343 77.5597ZM305.007 75.2475C303.746 74.9794 302.343 73.5771 301.769 72.4705C301.281 71.53 301.38 70.5179 301.625 69.3658C301.873 68.2012 302.452 67.3554 303.294 66.6942C304.264 65.9315 305.566 65.4573 306.816 65.723C308.238 66.0253 310.097 66.6866 310.616 68.0067C310.95 68.8529 311.299 70.5216 311.091 71.5012C310.888 72.4555 310.105 73.4177 309.482 74.0492C308.467 75.0772 306.453 75.5548 305.007 75.2475Z" fill="#FF4841" />
	</g>
	<path fill-rule="evenodd" clip-rule="evenodd" d="M220.767 47.17C221.766 52.175 225.871 55.8391 233.084 58.1623C240.296 60.4856 245.741 59.7849 249.42 56.0602C246.762 50.0919 242.948 46.3288 237.976 44.7708C233.005 43.2129 227.269 44.0126 220.767 47.17Z" fill="white" />
	<path fill-rule="evenodd" clip-rule="evenodd" d="M239.49 55.8713C240.667 55.9535 241.825 55.3913 242.515 54.4275C242.94 53.8354 243.142 53.0759 243.198 52.2681C243.256 51.439 243.178 50.6906 242.823 50.0348C242.268 49.0116 241.185 48.265 240.028 48.1841C239.011 48.1129 237.99 48.3565 237.306 49.0973C236.712 49.7394 236.389 50.8015 236.32 51.7872C236.252 52.7624 236.434 53.873 236.922 54.5881C237.496 55.4296 238.464 55.7995 239.49 55.8713Z" fill="#383838" />
	<path fill-rule="evenodd" clip-rule="evenodd" d="M220.597 47.2016C228.624 48.0012 234.845 49.076 239.258 50.4259C243.672 51.7757 247.138 53.6633 249.655 56.0884C248.464 49.9728 244.518 45.9495 237.818 44.0186C231.118 42.0877 225.377 43.1487 220.597 47.2016Z" fill="#C55858" />
	<path fill-rule="evenodd" clip-rule="evenodd" d="M251.851 54.0811L233.267 37.4266L234.483 31.1401L257.196 52.4329C256.764 54.1822 254.996 55.2505 253.247 54.819C252.728 54.6911 252.249 54.4377 251.851 54.0811Z" fill="#383838" />
	<path fill-rule="evenodd" clip-rule="evenodd" d="M181.963 114.081L173.312 87.5277C169.613 76.1739 172.053 63.7145 179.762 54.5947L196.158 35.196L181.963 114.081Z" fill="#383838" />
	<mask id="mask4_1354_10260" style="mask-type:alpha" maskUnits="userSpaceOnUse" x="209" y="152" width="105" height="89">
		<path d="M209.941 215.94L273.095 157.979C274.899 156.322 277.109 155.17 279.5 154.639L278.283 159.912L300.362 152.361C303.226 151.381 306.354 152.82 307.474 155.631C307.694 156.182 307.96 156.77 308.272 157.392C310.463 161.767 310.463 165.72 308.272 169.253C311.474 170.263 313.327 172.702 313.833 176.572C314.339 180.441 313.412 183.47 311.052 185.657C314.865 192.761 312.196 201.611 305.091 205.424C304.689 205.64 304.276 205.837 303.855 206.014L302.458 206.602L252.408 223.258L242.803 240.418L209.941 215.94Z" fill="white" />
	</mask>
	<g mask="url(#mask4_1354_10260)">
		<path d="M209.942 215.939L273.096 157.978C274.9 156.322 277.11 155.17 279.501 154.638L278.284 159.911L300.363 152.36C303.227 151.381 306.355 152.819 307.475 155.63C307.695 156.182 307.961 156.769 308.273 157.392C310.464 161.766 310.464 165.72 308.273 169.253C311.475 170.262 313.328 172.701 313.834 176.571C314.34 180.44 313.413 183.469 311.053 185.656C314.866 192.76 312.197 201.61 305.092 205.423C304.69 205.639 304.277 205.836 303.856 206.013L302.459 206.602L252.409 223.257L242.803 240.418L209.942 215.939Z" fill="#FF8181" />
		<path fill-rule="evenodd" clip-rule="evenodd" d="M279.906 159.302L264.694 165.792C267.776 161.299 270.481 158.122 272.808 156.261C275.135 154.399 277.839 153.25 280.919 152.813L279.906 159.302Z" fill="#C55858" />
		<path d="M310.567 185.583C310.836 185.382 311.218 185.437 311.419 185.707C311.62 185.976 311.564 186.357 311.295 186.558C309.541 187.868 307.442 188.847 305.004 189.498C304.68 189.584 304.346 189.391 304.26 189.066C304.173 188.742 304.366 188.408 304.691 188.322C306.984 187.71 308.942 186.797 310.567 185.583ZM307.541 168.919C307.814 168.723 308.194 168.786 308.39 169.059C308.585 169.332 308.522 169.712 308.249 169.908C306.428 171.212 304.281 172.147 301.814 172.713C301.486 172.789 301.16 172.584 301.085 172.257C301.01 171.929 301.214 171.603 301.542 171.528C303.857 170.996 305.855 170.126 307.541 168.919Z" fill="#C55858" />
	</g>
	<path fill-rule="evenodd" clip-rule="evenodd" d="M192.507 63.992C200.795 63.992 207.514 57.5458 207.514 49.594C207.514 41.6422 200.795 35.196 192.507 35.196C184.22 35.196 177.501 41.6422 177.501 49.594C177.501 55.809 181.605 61.1042 187.355 63.1209C188.962 63.6844 190.697 63.992 192.507 63.992Z" fill="#FF8181" />
	<mask id="mask5_1354_10260" style="mask-type:alpha" maskUnits="userSpaceOnUse" x="176" y="60" width="24" height="31">
		<path d="M183.805 61.3463C184.987 62.0701 186.267 62.7257 187.68 63.2515C186.586 63.4517 185.535 63.9555 184.659 64.768C180.146 68.9577 178.307 75.2922 179.874 81.2476L180.132 82.2307C180.34 83.0197 180.692 83.7632 181.172 84.4234C183.308 87.3646 187.424 88.0175 190.365 85.8816L190.62 85.6964C195.845 81.9021 197.772 75.0111 195.273 69.057L194.351 66.8599C194.076 66.2059 193.689 65.6054 193.207 65.0856C192.564 64.3936 191.797 63.8858 190.973 63.5648C191.332 61.864 191.557 60.7962 191.648 60.3616C193.106 60.8342 194.467 61.6749 195.584 62.8781C196.326 63.6767 196.921 64.5995 197.343 65.6042L198.265 67.8013C201.346 75.1442 198.97 83.6425 192.526 88.3217L192.271 88.507C187.88 91.6958 181.735 90.7211 178.546 86.3299C177.831 85.3443 177.304 84.2343 176.995 83.0563L176.736 82.0732C174.864 74.9601 177.061 67.3943 182.452 62.3901C182.878 61.9947 183.331 61.6468 183.805 61.3463Z" fill="white" />
	</mask>
	<g mask="url(#mask5_1354_10260)">
		<path d="M183.805 61.3466C184.987 62.0704 186.267 62.726 187.68 63.2518C186.586 63.4519 185.535 63.9557 184.659 64.7682C180.146 68.958 178.307 75.2924 179.874 81.2478L180.132 82.2309C180.34 83.0199 180.692 83.7635 181.172 84.4236C183.308 87.3649 187.424 88.0177 190.365 85.8818L190.62 85.6966C195.845 81.9023 197.772 75.0113 195.273 69.0572L194.351 66.8601C194.076 66.2062 193.689 65.6056 193.207 65.0859C192.564 64.3938 191.797 63.886 190.973 63.565C191.332 61.8642 191.557 60.7965 191.648 60.3618C193.106 60.8344 194.467 61.6751 195.584 62.8784C196.326 63.677 196.921 64.5997 197.343 65.6045L198.265 67.8016C201.346 75.1445 198.97 83.6427 192.526 88.322L192.271 88.5072C187.88 91.6961 181.735 90.7214 178.546 86.3302C177.831 85.3446 177.304 84.2345 176.995 83.0566L176.736 82.0735C174.864 74.9603 177.061 67.3945 182.452 62.3903C182.878 61.9949 183.331 61.6471 183.805 61.3466Z" fill="#FF4841" />
		<path fill-rule="evenodd" clip-rule="evenodd" d="M177.702 54.2581L192.506 52.8386L185.003 99.6827L171.821 96.4381L177.702 54.2581Z" fill="#FF4841" />
	</g>
	<path fill-rule="evenodd" clip-rule="evenodd" d="M94.5518 25.8677V56.4578L122.544 49.9901L96.6512 65.023L122.544 74.1126L94.5518 70.7914L96.6512 98.0602L85.8041 73.0638L70.758 93.1658L80.5554 68.8686C60.9605 62.2262 51.1631 58.905 51.1631 58.905C51.1631 58.905 60.9605 59.3128 80.5554 60.1286L70.758 38.6281L85.8041 54.5349L94.5518 25.8677ZM367.417 206.266L366.013 166.077L336.037 179.644L360.116 156.051L330.543 134.251L365.356 147.245L361.354 111.515L376.711 143.859L395.5 116.761L383.78 149.131C407.927 150.324 420 150.921 420 150.921C420 150.921 408.06 154.152 384.181 160.614L398.003 188.413L377.562 168.203L367.417 206.266Z" fill="#FF4841" />
	<path fill-rule="evenodd" clip-rule="evenodd" d="M53.9526 175.921L61.6439 194.975L46.7438 193.012L61.2523 200.225C50.4311 208.269 45.0205 212.29 45.0205 212.29C45.0205 212.29 51.6877 209.821 65.0221 204.881L70.2677 222.062L69.636 204.844L86.2132 213.466L73.3296 199.849L89.7183 189.507L71.9632 195.868L79.3135 176.658L67.147 192.214L53.9526 175.921Z" fill="#383838" />
	<path d="M61.9749 238.995C84.2601 233.024 97.4851 210.117 91.5138 187.832C85.5425 165.547 62.6361 152.322 40.3509 158.293C18.0657 164.264 4.8407 187.171 10.812 209.456C16.7833 231.741 39.6897 244.966 61.9749 238.995Z" fill="#FF4841" />
	<path d="M40.5651 203.804L41.5543 207.496L38.1539 208.407L38.8958 211.176L34.5238 212.347L33.7819 209.579L21.7832 212.794L20.7939 209.102L29.9681 195.345L34.3401 194.174L37.1647 204.715L40.5651 203.804ZM25.506 207.839L32.7927 205.887L31.1396 199.717L25.506 207.839ZM53.4614 207.533C46.7091 209.343 42.6699 207.093 41.1535 201.434C39.6436 195.799 42.0232 191.855 48.7755 190.045C55.5035 188.243 59.567 190.486 61.0704 196.097C62.5803 201.732 60.1894 205.731 53.4614 207.533ZM52.4787 203.866C56.3163 202.838 57.551 200.45 56.6984 197.268C55.8523 194.111 53.5959 192.685 49.7582 193.713C45.9206 194.741 44.6729 197.08 45.5255 200.262C46.3846 203.468 48.641 204.894 52.4787 203.866ZM82.8278 192.48L83.817 196.172L80.4166 197.083L81.1585 199.852L76.7865 201.023L76.0446 198.254L64.0459 201.469L63.0566 197.777L72.2308 184.021L76.6028 182.849L79.4273 193.391L82.8278 192.48ZM67.7687 196.515L75.0553 194.562L73.4023 188.393L67.7687 196.515Z" fill="white" />
	<path fill-rule="evenodd" clip-rule="evenodd" d="M236.237 64.7722C235.364 64.5706 235.143 63.8358 235.294 63.181C235.445 62.5263 235.912 62.1995 236.785 62.4011C237.658 62.6026 237.879 63.3374 237.728 63.9922C237.577 64.6469 237.11 64.9737 236.237 64.7722ZM244.754 64.3666C243.881 64.165 243.66 63.8358 243.811 63.181C243.962 62.5263 244.429 61.7939 245.302 61.9955C246.175 62.197 246.396 62.9319 246.245 63.5866C246.094 64.2414 245.627 64.5681 244.754 64.3666ZM241.104 68.8279C240.231 68.6264 240.01 67.8916 240.161 67.2368C240.312 66.582 240.779 66.2553 241.652 66.4568C242.525 66.6584 242.746 67.1904 242.595 67.8452C242.443 68.4999 241.977 69.0295 241.104 68.8279ZM232.993 70.0447C232.12 69.8431 231.696 69.5139 231.847 68.8591C231.998 68.2043 232.667 67.472 233.54 67.6736C234.413 67.8751 234.431 68.4071 234.28 69.0619C234.129 69.7167 233.866 70.2462 232.993 70.0447ZM227.315 63.1499C226.442 62.9483 226.018 62.4163 226.169 61.7615C226.32 61.1068 226.989 60.5772 227.862 60.7788C228.735 60.9803 228.956 61.9179 228.805 62.5727C228.654 63.2274 228.188 63.3514 227.315 63.1499Z" fill="#C55858" />
</svg>
