<?xml version="1.0" standalone="no"?>
<!DOCTYPE svg PUBLIC "-//W3C//DTD SVG 20010904//EN"
 "http://www.w3.org/TR/2001/REC-SVG-20010904/DTD/svg10.dtd">
<svg version="1.0" xmlns="http://www.w3.org/2000/svg"
 width="253" height="40" viewBox="0 0 404.000000 136.000000"
 preserveAspectRatio="xMidYMid meet">

<g transform="translate(0.000000,136.000000) scale(0.100000,-0.100000)"
fill="white" stroke="none">
<path d="M437 1353 c-11 -11 -8 -48 5 -61 32 -32 80 8 58 48 -10 19 -49 27
-63 13z"/>
<path d="M886 1338 c-20 -28 -4 -58 29 -58 33 0 49 30 29 58 -8 12 -21 22 -29
22 -8 0 -21 -10 -29 -22z"/>
<path d="M662 1243 c-7 -3 -18 -16 -23 -30 -22 -59 59 -102 95 -51 21 30 20
44 -4 68 -20 20 -42 24 -68 13z"/>
<path d="M220 1226 c-6 -8 -10 -25 -8 -38 4 -32 52 -38 68 -9 22 43 -29 83
-60 47z"/>
<path d="M1106 1224 c-19 -19 -20 -25 -3 -48 19 -26 61 -18 65 12 7 44 -32 67
-62 36z"/>
<path d="M426 1104 c-9 -8 -16 -24 -16 -35 0 -24 34 -59 58 -59 41 0 69 69 40
98 -17 17 -64 15 -82 -4z"/>
<path d="M870 1101 c-15 -29 -12 -56 8 -74 50 -46 114 13 82 74 -7 13 -21 19
-45 19 -24 0 -38 -6 -45 -19z"/>
<path d="M646 1009 c-52 -41 -23 -129 44 -129 67 0 96 88 44 129 -15 12 -34
21 -44 21 -10 0 -29 -9 -44 -21z"/>
<path d="M212 984 c-24 -16 -28 -44 -12 -75 12 -22 68 -27 88 -7 18 18 14 63
-6 81 -23 21 -41 21 -70 1z"/>
<path d="M1092 978 c-19 -19 -14 -63 8 -83 16 -15 26 -17 47 -9 37 13 49 37
37 71 -7 22 -16 29 -44 31 -19 2 -41 -3 -48 -10z"/>
<path d="M1961 963 c-61 -22 -133 -96 -154 -158 -14 -38 -17 -87 -17 -232 l0
-183 40 0 40 0 0 178 c0 150 3 183 19 217 63 139 276 157 375 32 l31 -39 3
-194 3 -194 46 0 45 0 -4 188 c-3 169 -6 192 -26 237 -28 60 -62 98 -122 133
-38 23 -57 27 -140 29 -68 2 -108 -2 -139 -14z"/>
<path d="M2935 956 c-113 -52 -172 -161 -163 -300 8 -115 59 -196 156 -243 49
-24 69 -28 142 -28 132 0 213 47 273 159 18 34 22 57 22 141 0 114 -14 152
-82 217 -60 58 -114 78 -213 78 -68 0 -95 -5 -135 -24z m265 -89 c69 -46 102
-145 80 -242 -23 -102 -94 -155 -210 -155 -81 0 -137 24 -176 76 -26 33 -29
47 -32 126 -4 80 -2 92 22 132 43 74 94 97 203 92 58 -2 80 -8 113 -29z"/>
<path d="M3595 956 c-68 -31 -131 -104 -151 -174 -33 -112 -4 -242 71 -317 59
-58 115 -79 215 -80 73 0 93 4 142 28 103 50 158 141 158 259 l0 58 -150 0
-150 0 0 -45 0 -45 105 0 c99 0 105 -1 105 -20 0 -52 -60 -119 -126 -140 -20
-7 -66 -10 -104 -8 -82 4 -139 37 -170 98 -30 58 -28 172 3 231 59 111 247
135 344 43 32 -31 42 -35 80 -32 l44 3 -31 46 c-55 84 -130 119 -254 119 -64
0 -92 -5 -131 -24z"/>
<path d="M1640 680 l0 -290 40 0 40 0 0 290 0 290 -40 0 -40 0 0 -290z"/>
<path d="M2460 783 c0 -176 2 -191 24 -238 26 -56 88 -117 141 -139 20 -9 64
-17 98 -18 l62 -3 0 40 c0 35 -3 40 -25 43 -101 10 -113 14 -154 53 -58 53
-66 86 -66 283 l0 166 -40 0 -40 0 0 -187z"/>
<path d="M433 892 c-50 -8 -70 -85 -33 -122 45 -45 123 -13 123 50 0 49 -39
80 -90 72z"/>
<path d="M880 870 c-30 -30 -27 -83 6 -109 15 -12 34 -21 44 -21 10 0 29 9 44
21 35 27 37 90 4 113 -31 22 -74 20 -98 -4z"/>
<path d="M17 852 c-34 -37 -11 -92 38 -92 50 0 73 60 37 93 -24 22 -55 21 -75
-1z"/>
<path d="M1287 852 c-20 -22 -22 -63 -5 -80 20 -20 76 -15 88 7 16 31 12 59
-12 75 -29 21 -51 20 -71 -2z"/>
<path d="M631 776 c-77 -42 -61 -171 23 -195 83 -22 152 33 142 114 -9 77 -96
119 -165 81z"/>
<path d="M207 722 c-34 -38 -8 -92 44 -92 32 0 49 17 49 51 0 53 -59 79 -93
41z"/>
<path d="M1096 724 c-19 -18 -21 -65 -4 -82 18 -18 63 -14 81 6 47 52 -28 126
-77 76z"/>
<path d="M401 596 c-49 -52 -1 -136 68 -121 59 13 77 96 28 130 -31 22 -70 18
-96 -9z"/>
<path d="M880 600 c-26 -26 -26 -81 -2 -103 25 -23 85 -22 105 1 25 28 22 87
-5 106 -31 22 -74 20 -98 -4z"/>
<path d="M1299 606 c-36 -17 -38 -69 -4 -92 47 -31 98 10 79 64 -11 32 -44 44
-75 28z"/>
<path d="M10 589 c-17 -30 -8 -62 21 -78 24 -13 29 -13 53 2 27 18 33 45 16
78 -15 27 -75 26 -90 -2z"/>
<path d="M670 483 c-32 -12 -50 -37 -50 -70 0 -62 65 -94 118 -57 28 19 31 83
5 106 -22 19 -53 28 -73 21z"/>
<path d="M1108 476 c-15 -8 -24 -22 -26 -43 -6 -65 88 -83 104 -19 12 50 -31
85 -78 62z"/>
<path d="M207 462 c-22 -24 -21 -55 1 -75 37 -33 92 -13 92 33 0 54 -58 80
-93 42z"/>
<path d="M443 349 c-44 -16 -38 -90 7 -104 32 -10 70 20 70 54 0 42 -36 65
-77 50z"/>
<path d="M889 346 c-35 -17 -34 -75 2 -95 24 -13 29 -13 53 2 60 40 10 126
-55 93z"/>
<path d="M650 210 c-24 -24 -25 -38 -4 -68 29 -42 104 -17 104 35 0 20 -38 53
-60 53 -11 0 -29 -9 -40 -20z"/>
<path d="M220 196 c-19 -23 -8 -61 18 -64 44 -7 67 32 36 62 -19 20 -38 20
-54 2z"/>
<path d="M1100 190 c-16 -31 4 -62 38 -58 19 2 28 10 30 26 7 47 -47 72 -68
32z"/>
<path d="M1656 188 c-22 -32 -20 -61 7 -86 28 -27 68 -28 90 -4 27 30 22 52
-13 52 -35 0 -41 -17 -7 -22 21 -3 22 -4 2 -15 -32 -17 -65 1 -65 36 0 24 5
32 25 37 14 3 31 1 39 -5 10 -8 16 -9 21 -1 11 18 -6 30 -45 30 -29 0 -43 -6
-54 -22z"/>
<path d="M1920 146 c0 -37 4 -66 10 -66 6 0 10 9 10 19 0 22 22 41 27 24 2 -6
10 -19 18 -29 18 -25 33 -9 16 18 -10 16 -10 22 -1 28 6 4 10 20 8 36 -3 26
-7 29 -45 32 l-43 3 0 -65z m65 24 c0 -8 -10 -16 -22 -18 -18 -3 -23 2 -23 18
0 16 5 21 23 18 12 -2 22 -10 22 -18z"/>
<path d="M2160 155 c0 -43 4 -56 19 -65 50 -26 81 1 81 71 0 37 -4 49 -15 49
-11 0 -15 -12 -15 -51 0 -47 -2 -50 -22 -47 -20 3 -23 10 -26 51 -4 65 -22 59
-22 -8z"/>
<path d="M2410 146 c0 -62 15 -92 22 -44 2 14 12 24 27 28 60 14 51 73 -13 78
l-36 3 0 -65z m65 24 c0 -8 -10 -16 -22 -18 -18 -3 -23 2 -23 18 0 16 5 21 23
18 12 -2 22 -10 22 -18z"/>
<path d="M2656 188 c-22 -32 -20 -61 7 -86 27 -26 54 -28 85 -6 26 18 30 74 6
98 -24 24 -80 20 -98 -6z m88 -20 c16 -26 -4 -53 -40 -53 -25 0 -30 4 -32 29
-6 46 47 63 72 24z"/>
<path d="M445 77 c-26 -20 -16 -61 16 -65 29 -3 54 20 46 42 -10 25 -42 37
-62 23z"/>
<path d="M884 76 c-3 -8 -4 -25 -2 -38 2 -18 9 -23 33 -23 28 0 30 3 30 35 0
31 -3 35 -28 38 -17 2 -29 -2 -33 -12z"/>
</g>
</svg>
