<?xml version="1.0" standalone="no"?>
<!DOCTYPE svg PUBLIC "-//W3C//DTD SVG 20010904//EN"
 "http://www.w3.org/TR/2001/REC-SVG-20010904/DTD/svg10.dtd">
<svg version="1.0" xmlns="http://www.w3.org/2000/svg"
 width="64.000000pt" height="64.000000pt" viewBox="0 0 64.000000 64.000000"
 preserveAspectRatio="xMidYMid meet">

<g transform="translate(0.000000,64.000000) scale(0.100000,-0.100000)"
fill="#000000" stroke="none">
<path d="M169 586 c-26 -15 -59 -70 -59 -99 0 -8 7 -33 15 -56 l14 -41 -44 0
-45 0 0 -150 0 -150 24 0 c14 0 30 -10 40 -25 22 -33 60 -33 82 0 16 24 20 25
119 25 99 0 103 -1 119 -25 22 -33 60 -33 82 0 11 17 25 25 45 25 29 0 29 0
29 61 0 58 -2 63 -47 115 -45 51 -51 54 -95 54 -45 0 -47 1 -50 33 -3 30 -6
32 -46 35 -37 3 -42 6 -37 20 4 9 10 40 12 68 5 46 2 55 -23 83 -35 38 -94 50
-135 27z m112 -35 c39 -39 38 -85 -2 -164 -55 -108 -53 -107 -88 -46 -68 119
-74 167 -26 215 34 34 79 32 116 -5z m-102 -231 c17 -27 37 -50 44 -50 7 0 26
22 42 50 28 47 32 50 73 50 l42 0 0 -130 0 -130 -87 0 c-62 1 -94 5 -107 15
-25 19 -50 19 -66 0 -7 -8 -21 -15 -31 -15 -18 0 -19 9 -19 130 l0 130 39 0
c36 0 42 -4 70 -50z m315 -29 c3 -5 -3 -11 -15 -14 -16 -4 -20 -12 -17 -39 3
-32 4 -33 56 -36 l52 -3 0 -45 c0 -39 -2 -44 -22 -44 -13 0 -32 7 -42 15 -25
19 -50 19 -66 0 -7 -8 -19 -15 -26 -15 -11 0 -14 21 -14 95 l0 95 44 0 c25 0
47 -4 50 -9z m41 -51 c18 -20 17 -20 -18 -20 -30 0 -37 4 -37 20 0 13 7 20 18
20 11 0 27 -9 37 -20z m-357 -148 c4 -28 -24 -40 -45 -19 -14 13 -14 19 -3 32
18 22 44 15 48 -13z m317 -2 c0 -16 -6 -26 -18 -28 -19 -4 -32 20 -23 44 9 25
41 13 41 -16z"/>
<path d="M198 529 c-28 -16 -23 -67 7 -81 21 -9 28 -8 45 7 25 23 26 47 2 68
-21 19 -30 20 -54 6z m36 -15 c21 -8 21 -40 0 -48 -21 -8 -34 1 -34 23 0 28 9
34 34 25z"/>
</g>
</svg>
